<?xml version="1.0" encoding="UTF-8"?>
<svg id="Livello_2" data-name="Livello 2" xmlns="http://www.w3.org/2000/svg" viewBox="0 0 221.83 223.3">
  <defs>
    <style>
      .cls-1 {
        fill: #000;
        stroke-width: 0px;
      }
    </style>
  </defs>
  <g id="Objects">
    <g>
      <path class="cls-1" d="M122.42,83.69c.03.15.07.33.09.45.14.15.07-.05-.09-.45Z"/>
      <path class="cls-1" d="M121.84,80.96c-.23-.97-.46-1.95-.64-2.7-.3.31-.15,1.35.17,2.47.31,1.12.8,2.31,1.05,2.95-.12-.78-.35-1.75-.58-2.72Z"/>
      <path class="cls-1" d="M121.08,82.83c.1.54.21,1.07.33,1.61-.05-.28-.03-.45-.03-.62,0-.23-.04-.47-.3-.99Z"/>
      <path class="cls-1" d="M121.41,84.44c.02.1.04.21.07.34-.03-.11-.05-.23-.07-.34Z"/>
      <path class="cls-1" d="M122.28,84.97c-.04-.36-.07-.72-.1-1.07h-.28c.13.35.25.71.38,1.07Z"/>
      <path class="cls-1" d="M169.05,13.06l.29.06c-.32-.46-.33-.31-.29-.06Z"/>
      <path class="cls-1" d="M175.43,32.81l-.27-.32c-.01.08-.01.16-.02.24.08.08.17.11.29.07Z"/>
      <path class="cls-1" d="M164.81,6.51c.07.33.19.65.35.96.2-.03.11-.41-.35-.96Z"/>
      <path class="cls-1" d="M175.81,38.45c-.03.38-.04.71-.06,1.07.09-.24.13-.62.06-1.07Z"/>
      <path class="cls-1" d="M124.95,88.72c0,.27.05.59.15.92.08-.18.14-.38-.15-.92Z"/>
      <path class="cls-1" d="M116.07,51.1c.12-.11.25-.22.37-.33-.25,2.1-.17,3.45-.1,4.85.04.7.06,1.42.07,2.25,0,.42-.01.86-.03,1.35-.01.49-.04,1.02-.08,1.61.05.64.08.46.11.12.04-.34.09-.84.19-.85.26.69.05,2.33-.09,2.69.52-.39.31-2.34.77-.87-.23,1.06.47-.73.41,1.12l-.64.76c.08.52.22.56.33.68.12.12.2.32.23,1.13-.08.94-.31.39-.51-.03-.2-.42-.36-.7-.3.82.02.19.06.38.12.57.06.19.14.39.23.59.18.4.41.82.62,1.29.22.46.44.97.6,1.54.04.14.08.29.11.44.04.15.07.31.09.47.05.32.08.66.09,1.03.17.61.33.82.44.85.12.03.21-.12.29-.24.16-.24.28-.34.47,1.36l.04-1.12.02-.56.03-.56c.14.28.29.3.4.47.07.4.14.81.21,1.21-.08.24-.16.58-.21.93-.05.4-.06.84,0,1.24-.04-1.5.23-1.05.54-.45.12.58.24,1.16.37,1.74.97,4.27,2.3,8.53,4.56,12.27.03.21.14.32.27.44.22.34.44.68.67,1.02.28.4.58.79.88,1.17,2.04,2.54,4.8,4.26,7.8,5.04.08.07.27.18.51.28.14.06.29.13.44.18.15.06.29.11.42.17.25.1.4.19.32.25-.04.03-.14.05-.32.07-.09,0-.2,0-.33,0-.1,0-.21,0-.33-.02.02,0,.05,0,.08,0,.13.01.32.03.52.06.2.03.43.06.64.11.22.04.42.11.59.19-.25-.13-.43-.25-.59-.37-.16-.12-.3-.23-.45-.33-.16-.1-.34-.21-.58-.3-.18-.08-.39-.16-.66-.24,2.91.7,6.02.53,8.93-.65.03-.01.05-.02.08-.03,1.15-.47,2.25-1.01,3.32-1.61.13-.05.27-.11.43-.17.55-.25,1.18-.54,1.11-.15-.32.14-.61.33-.9.52-.29.18-.57.37-.82.54-.5.34-.94.55-1.22.4.44.2-.25.57-.73.82-.24.12-.43.2-.39.23.04.03.32.02.99-.13-.14.08-.27.16-.41.24-.14.08-.28.14-.42.22-.29.14-.57.28-.87.41-.14.07-.3.14-.44.2-.15.06-.31.12-.46.18-.16.06-.31.11-.47.16-.16.05-.32.1-.48.14-1.28.35-2.63.48-3.95.41-1.33-.08-2.63-.35-3.85-.78-1.22-.44-2.34-1.02-3.35-1.71.1.31.01.48-.25.51.37.21.8.43,1.23.66.44.22.9.44,1.34.65.88.42,1.72.77,2.17,1.1-.31.05-.63,0-.94-.09-.31-.1-.61-.24-.87-.4-.53-.3-.91-.63-1.11-.58.24.19.65.38.99.55.17.08.32.17.43.26.11.08.17.17.15.26-.81.01-1.4-.23-1.87-.52-.24-.15-.45-.31-.67-.47-.21-.17-.43-.31-.66-.45.2.03.41.06.61.08-.7-.46-1.08-.86-1.33-1.17-.12-.16-.21-.3-.29-.43-.07-.13-.13-.25-.19-.36-.06-.11-.13-.22-.21-.34-.08-.12-.19-.23-.32-.37-.27-.28-.67-.61-1.29-1.15-.58-.26-.65-.21-.62-.01.03.19.17.5-.02.71-.1-.19-.33-.41-.59-.68-.14-.13-.28-.28-.42-.43-.07-.08-.15-.15-.22-.23-.07-.08-.14-.16-.21-.25-.28-.33-.56-.67-.75-1-.19-.33-.31-.64-.29-.9.2.29.4.57.6.85l.64.82c-.19-.31-.38-.62-.56-.91-.17-.3-.35-.59-.5-.87-.15-.29-.3-.56-.42-.82-.12-.27-.22-.52-.3-.76-.06.15-.12.28-.01.57-.1-.27-.23-.55-.35-.84-.12-.28-.25-.57-.35-.84-.21-.55-.34-1.05-.29-1.39-.23-.01-.46-.03-.68-.05.13.13.28.34.44.59.08.13.15.26.23.4.08.14.16.28.23.42.07.14.14.29.2.42.06.14.12.27.16.38.08.24.12.44.09.56-.14.02-.29-.09-.44-.28-.15-.19-.31-.46-.45-.76-.14-.3-.28-.63-.4-.93-.12-.31-.24-.59-.33-.79.09.24.17.46.25.67.08.21.15.41.22.6.14.37.24.71.35,1.01.1.3.18.58.26.84.08.26.16.5.23.74.08.24.17.46.26.69.1.23.21.47.36.71.07.12.15.25.24.38.09.13.19.26.3.4.22.27.47.57.79.89-.08-.2-.14-.4-.22-.59.21.18.4.38.6.58.19.2.39.4.58.61.37.42.75.83,1.11,1.25.37.42.76.8,1.16,1.17.41.35.82.67,1.26.91-.28-.08-.47-.1-.57-.06-.1.04-.11.13-.02.24,1.03.49,2.08.89,3.16,1.23,1.08.33,2.18.59,3.32.73.57.08,1.15.11,1.73.12.59,0,1.18-.01,1.78-.08.6-.07,1.2-.16,1.8-.31l.23-.05.22-.06c.15-.04.3-.08.45-.13.3-.1.6-.2.89-.32.14,0,.27.02.41.02h.43s.22,0,.22,0c.04,0,.06,0,.08,0,.02,0,.05,0,.09,0h.4s-.09-.47-.09-.47c1.05-.57,1.23-.48,1.33-.33.1.15.11.37.8,0-.53.27-.47.16-.62.11.68-.2,1.1-.38,1.36-.53.27-.15.36-.29.43-.41.13-.25.1-.46.8-.79-.22-.01-.5.07-.78.18-.29.11-.58.26-.85.35-.53.2-.91.3-.76-.14.16-.05.33-.1.51-.16.17-.06.35-.12.52-.2.34-.15.7-.32,1.05-.49.36-.16.7-.37,1.04-.56.34-.19.68-.37.99-.56.31-.19.61-.36.89-.51.28-.15.55-.27.78-.38.47-.21.85-.28,1.11-.13,1.85-1.81,3.91-3.77,5.76-5.81,1.86-2.03,3.52-4.09,4.7-5.87.14-.6-.32.23-.33-.04.35-.27.7-.72,1.01-1.24.3-.53.59-1.12.83-1.67.46-1.11.82-2.04,1.08-1.92.12-.39.14-.71.1-.96-.03-.26-.1-.44-.12-.58.35-.42.7-.9,1.04-1.43.17-.26.34-.54.5-.82.16-.29.31-.59.46-.89l-.54.85-.03-.13.76-1.2v.06c.2-.38.38-.77.57-1.17.1-.2.18-.4.26-.6.08-.2.17-.41.25-.62.17-.41.34-.83.51-1.24l.26-.62c.08-.21.16-.42.24-.63.31-.84.64-1.66.98-2.45.31-.8.64-1.56,1-2.26-.43.8-.56.65-.64.39-.06-.19-.09-.43-.19-.41.11-.12.22-.26.33-.42.08-.11.16-.23.23-.36.07-.13.14-.26.21-.41.27-.57.52-1.24.76-1.96.06-.18.12-.37.17-.55.05-.19.1-.38.14-.57.09-.39.18-.78.26-1.18.08-.4.16-.79.23-1.18.07-.39.11-.78.17-1.16-.19-.02-.3-.28-.5.05l.65-1.68-.26.2c.1-.78.21-1.58.37-2.37.16-.79.36-1.56.49-2.31.15-.75.28-1.47.37-2.13,0-.08.02-.17.03-.25,0-.08,0-.16.01-.24,0-.16.01-.31,0-.47,0-.3-.02-.59-.07-.85-.15,1.29-.34,1.29-.65,1.4.06-1.13.11-2.22.17-3.36.02-.57.04-1.16.08-1.76.02-.3.04-.61.06-.93.02-.32.03-.64.05-.97-.05.14-.11.24-.18.24-.11-.69.07-1.53.15-2.24l-.46-.07c0-.08.02-.17.02-.26,0-.09,0-.18,0-.27,0-.18,0-.36-.02-.55-.02-.38-.05-.77-.08-1.17-.03-.4-.05-.81-.06-1.22-.02-.41-.02-.82.01-1.23-.14-.14-.22-.45-.26-.88-.04-.42-.04-.95-.06-1.52,0-.29-.02-.58-.03-.88-.02-.3-.04-.6-.07-.89-.05-.58-.15-1.13-.3-1.58-.02-.36-.07.05-.16.3-.09.25-.22.35-.42-.63.45-.25.3-.89.16-1.52-.15-.63-.29-1.24.2-1.46-.14-.27-.29-.54-.44-.81-.15-.27-.29-.54-.45-.8l.37-.54c-.36-.29-.56-.57-.67-.88-.12-.3-.16-.63-.19-.98-.02-.18-.02-.36-.05-.56-.02-.19-.06-.39-.1-.61-.1-.42-.25-.89-.57-1.39-.05.16.02.4-.1.32-.11-.36-.32-.95-.43-1.3-.11-.35-.08-.48.35.07-.14-.28-.36-.74-.6-1.23-.25-.49-.54-1.02-.79-1.45-.53-.85-.92-1.31-.64-.34.05-.07.13-.02.22.11.05.06.1.14.16.24.06.1.11.21.16.32.11.24.22.5.33.75.05.13.1.25.14.36.04.11.08.22.11.31-.11.03-.24-.06-.38-.2-.14-.15-.3-.35-.47-.57-.17-.21-.33-.44-.51-.62-.18-.17-.36-.3-.52-.34.01-.08-.05-.33-.09-.52l-.38-.07c-.1-.28-.24-.54-.37-.8-.14-.26-.27-.52-.43-.77-.16-.24-.32-.48-.48-.72-.17-.23-.32-.47-.49-.68-.17-.22-.34-.44-.5-.65-.16-.22-.31-.43-.47-.64-.3-.42-.57-.83-.78-1.26-.17.03-.55-.19-1.15-.76l.34-.45c-.67-.57-1.36-1.1-2.07-1.6.09.23.17.46.25.69.08.23.16.46.23.69-1.15-.79-2.03-1.59-2.92-2.35-.88-.76-1.76-1.49-2.85-2-.46.32-1.49-.18-2.77-.63-.64-.22-1.34-.44-2.02-.54-.68-.11-1.35-.11-1.88.05.62.14,1.23.3,1.82.5-.97-.21-1.75-.29-2.43-.3-.68-.02-1.25.03-1.81.09-1.12.13-2.2.27-4.06.56.38-.13.71-.25,1.02-.33.15-.04.3-.08.44-.12.14-.03.27-.06.4-.09.13-.03.25-.06.38-.08.12-.03.24-.04.36-.07.24-.04.47-.09.72-.12.49-.08,1.03-.16,1.75-.25.72-.09,1.61-.17,2.81-.19-1.19-.08-2.3-.13-3.37-.14-1.07-.01-2.11.02-3.14.13-.26.04-.51.07-.77.11-.26.04-.51.09-.76.14-.26.05-.51.12-.76.18-.26.06-.5.15-.75.23-.49.18-.99.35-1.46.6-.24.12-.48.25-.71.38l-.18.1-.17.11c-.11.08-.23.16-.34.23.18.03.53-.05.73-.04.1,0,.16.03.15.09,0,.03-.04.07-.09.13-.05.06-.13.13-.23.21-.24-.01-.58.1-.96.27-.19.08-.37.19-.56.3-.18.11-.37.23-.55.33-.36.21-.65.42-.85.52-.2.1-.31.08-.27-.13-.24.23-.42.44-.54.64-.12.2-.2.38-.27.54-.07.16-.13.32-.21.46-.07.15-.17.28-.3.42l-.9.58c-.15.1-.3.2-.44.3l-.44.31-.44.32-.42.33c-.28.22-.56.44-.84.67l.17-.02c-.92,1.56-1.82,2.97-2.73,4.31-.91,1.34-1.84,2.63-2.74,3.93-.89,1.29-1.78,2.59-2.57,3.98-.2.35-.39.7-.58,1.06-.18.36-.36.73-.53,1.1-.35.74-.64,1.52-.91,2.32h.33s-.27.34-.27.34l-.26.35-.35.48c.5-.6,0,.91.18,1.08l-1.06,1.89c-.34.64-.68,1.28-1.01,1.93.11.09.33.12.55,0,.22-.12.44-.39.56-.9-.06.41-.18.8-.32,1.18-.14.38-.31.75-.5,1.12-.09.18-.18.36-.28.54-.09.18-.17.36-.26.53-.17.35-.32.69-.42,1.03l.39-.39c-.21.44-.41.87-.61,1.31l.37.09c-.1.28-.19.57-.28.86-.09.29-.17.59-.24.9-.14.6-.28,1.2-.41,1.75-.12.55-.25,1.06-.4,1.47-.15.41-.29.73-.49.91l.65-.15c-.32.78-.65,1.57-.94,2.36.22-.45.43-.89.66-1.33-.03.17-.06.35-.09.53-.03.18-.06.37-.1.56-.07.38-.15.77-.23,1.16-.16.79-.33,1.58-.49,2.31-.15.73-.29,1.4-.4,1.92-.1.52-.17.89-.18,1.04l.25-.23c.07.47-.13.81-.25,1.28ZM140.44,99.69c-.27-.14-.53-.28-.78-.43.24-.01.47-.02.71-.04.23-.03.47-.04.7-.07-.2.19-.41.36-.63.54ZM153.73,92.26l-.31.25c-.1.08-.21.16-.32.24.26-.28.49-.6.73-.89l-.1.4ZM159.38,86.2c-.11.21-.25.42-.42.62-.17.21-.36.41-.57.61-.21.2-.45.39-.69.58-.24.19-.5.38-.75.56-.26.18-.53.36-.79.53-.26.18-.51.36-.76.54-.25.17-.49.35-.7.53.08,0,.27-.13.48-.27.1-.07.21-.13.32-.18.1-.05.2-.09.28-.09-.13.17-.28.32-.43.47-.15.15-.3.3-.46.45s-.31.29-.48.43c-.16.14-.34.27-.5.4-.34.26-.68.51-1.04.74-.36.22-.72.44-1.07.64-.35.21-.72.39-1.07.57-.14.07-.29.15-.43.22,2.79-1.88,5.3-4.18,7.54-6.75.1-.07.21-.14.31-.22.25-.18.5-.35.75-.52.25-.17.47-.34.7-.5-.03.22-.1.44-.21.66ZM159.07,85.31c.34-.42.68-.85,1-1.29-.09.32-.19.64-.3.96-.27.18-.5.27-.71.33ZM163.43,80.48c-.4.45-.82,1.24-.92,1.65.32-.08.77-.89,1.09-1.11-.07.36-.3.74-.59,1.11-.3.37-.65.71-.94,1.02-.14.15-.27.3-.37.42-.1.13-.17.24-.19.34-.05.19.09.33.54.37-.25.19-.74.63-1.15.93-.42.29-.75.45-.65.1.13-.15.27-.32.4-.5.14-.19.28-.39.43-.6s.29-.43.44-.66c.15-.23.28-.47.42-.7.55-.93.99-1.88,1.18-2.45-.03-.1-.02-.24.1-.48,0,.1-.03.28-.1.48.05.11.17.14.33.09.15-.17.3-.32.43-.35-.1.18-.27.3-.43.35ZM165.65,75.63c-.04.13-.09.26-.15.39-.06.13-.12.26-.18.39-.12.25-.24.47-.31.6-.31.26-.61.55-.92.87.06-.11.12-.21.18-.32.48-.86.95-1.72,1.4-2.6.13.03.09.31-.03.67ZM171.07,61.16c.03-.1.06-.2.08-.3.17-.24.33-.35.45-.22-.35.83-.43.58-.53.52ZM171.52,64.4c.09-.34.18-.71.26-1.04.17-.66.3-1.16.27-.99.13.15.03.75-.15,1.38-.09.31-.2.64-.31.91-.11.27-.21.5-.31.63.07-.22.14-.54.23-.88ZM171.68,65.92l-.38.55c.31-1.66.25-.77.38-.55l.46-.67c-.26.72-.38.77-.46.67ZM172.67,55.6s.06.01.09.01c-.03.01-.07.01-.09-.01ZM174.92,47.35l.08,2.37c.04.21.05.46,0,.77,0-.26,0-.51,0-.77-.19-.93-.91-1.17-.08-2.37ZM174.08,49.79c.14-.23.29-.49.47-.83.08.93-.15,1.5-.4,1.81-.25.3-.55.34-.71.21-.45,1.23,0,1.03,0,1.72l-.44-.5c.25-.89.46-1.36.7-1.78.12-.21.25-.4.39-.63ZM163.85,6.68l.4.38c.13.13.26.25.39.39.18.13.35.28.49.5-.16-.17-.32-.33-.49-.5-.23-.17-.47-.27-.62-.38-.16-.11-.24-.22-.17-.39ZM159.05,4.14c.41.31.61.46.95.62-.1-.33-.85-1.13-.14-.83.08.12.24.28.42.44.18.16.39.35.57.53.19.18.36.35.47.51.11.15.16.28.11.36-.13-.15-.26-.28-.4-.38-.14-.11-.28-.19-.42-.27-.28-.15-.56-.23-.8-.31-.48-.15-.81-.25-.75-.67ZM145.71,2.49c.17,0,.35.02.53.03.18,0,.35.03.51.03.33,0,.61.02.78-.04.17-.06.24-.18.12-.4.13.1.26.21.39.32-.12.02-.24.03-.35.05.22.02.43.05.64.08-.59.02-1.19.07-1.77.16-.32-.05-.62-.1-.89-.14-.31-.04-.6-.07-.85-.06.22-.03.54-.04.89-.03ZM132.52,8.93c.15-.2.32-.34.5-.46.36-.24.74-.36,1.06-.51.08-.05.16-.1.26-.15-.08.06-.17.11-.26.15-.13.08-.24.16-.33.25-.09.09-.17.17-.24.26-.14.17-.24.34-.35.5-.22.31-.43.58-.98.73.08-.31.19-.56.33-.76ZM131.1,11.52c.17-.23.38-.45.56-.63.36-.36.62-.54.43-.23-.47.77-.22.69.08.55.3-.14.63-.33.36.19.18-.25.35-.51.54-.75-.16.35-.29.57-.42.71-.13.13-.26.19-.38.23-.25.08-.5.09-.76.55.12-.21.23-.42.36-.62.02-.34-.2-.16-.46.09-.26.26-.56.6-.72.57.09-.19.25-.43.42-.66ZM125.56,26.21c-.19.47-.38.94-.56,1.41-.01-.06,0-.13,0-.23.04-.24.15-.59.16-.99.02.13.19.04.39-.19ZM118.92,65.69c.12-.36.29-.15.4-.28.02.79-.16,1.85-.46.96l.06-.69ZM118.03,44.81c.13,1.07.01,1.17-.21,1.84-.11-.24-.02-1.17.21-1.84ZM116.93,47.53c.09-.13.2-.26.3-.43.1-.17.2-.39.28-.71.05.88-.08,1.22-.28,1.47-.19.25-.43.4-.54.92-.08-.71.05-.99.24-1.25Z"/>
      <path class="cls-1" d="M121.42,26.33c-.05.06-.1.13-.17.22l.17-.22Z"/>
      <path class="cls-1" d="M127.48,92.97c-.05-.13-.1-.24-.15-.34-.1-.2-.21-.36-.32-.5.31.48.51.93.62,1.27-.05-.16-.11-.3-.16-.43Z"/>
      <path class="cls-1" d="M126.43,91.47c.11.13.21.24.3.35.1.1.19.2.28.31-.08-.13-.17-.26-.27-.4-.09-.14-.19-.29-.3-.44-.22-.3-.45-.63-.72-.96.13.27.25.48.36.67.11.19.23.33.34.46Z"/>
      <path class="cls-1" d="M136.18,98.06c-.08,0-.14-.01-.14-.01.05,0,.09,0,.14.01Z"/>
      <path class="cls-1" d="M141.06,98.5c.11-.04.23-.07.36-.1.13-.04.28-.07.42-.1-.13.01-.26.04-.39.07-.13.03-.26.07-.4.13Z"/>
      <path class="cls-1" d="M141.85,98.29c.23-.02.45-.04.68-.03.23,0,.46,0,.71-.01.24-.02.49-.05.75-.13.13-.04.26-.09.39-.15.12-.06.25-.14.38-.23-.13-.01-.26-.03-.39-.05-.13-.02-.27-.04-.42-.05-.15-.01-.31,0-.5,0-.19.01-.39.05-.64.1.41.21-.27.39-.97.55Z"/>
      <path class="cls-1" d="M169.25,72.67v-.07c-.09.15-.15.29-.22.42l.22-.35Z"/>
      <path class="cls-1" d="M221.66,80.26c.05-.51.11-1.03.15-1.54-.08.64-.34.6-.15,1.54Z"/>
      <path class="cls-1" d="M221.81,78.72c.01-.08.02-.18.02-.28,0,.09-.01.19-.02.28Z"/>
      <polygon class="cls-1" points="220.91 79.03 221.18 79.11 221.13 78.06 220.91 79.03"/>
      <path class="cls-1" d="M161.96,118.53l-.22-.18c.04.49.13.38.22.18Z"/>
      <path class="cls-1" d="M163.69,99.86l.16.36c.03-.06.06-.14.09-.21-.05-.09-.13-.15-.25-.16Z"/>
      <path class="cls-1" d="M161.85,124.74c-.06.15-.1.39-.08.7.14-.28.24-.57.31-.87-.09-.04-.17.02-.23.17Z"/>
      <path class="cls-1" d="M165.38,93.95c-.16.18-.3.5-.37.91.14-.32.24-.61.37-.91Z"/>
      <path class="cls-1" d="M220.72,92.75c-.03-.26-.04-.52-.04-.79,0-.55.08-1.14.29-1.78,0-1.17-.32-.9-.54-.74-.22.16-.36.22-.07-1.33-.12.32-.23.63-.34.94.11-.75.2-1.49.28-2.24.02-.09.04-.18.05-.27-.01.04-.02.09-.03.13.08-.8.16-1.59.21-2.39.01-.16.02-.31.03-.47.15-.42.22-1.07.22-1.77.01-.54-.03-1.1-.05-1.6-.02-.27-.05-.52-.07-.74,0-.26-.01-.53-.02-.79,0-.06.01-.12.02-.16-.01-.02-.02-.04-.03-.05-.03-.97-.1-1.93-.2-2.89l.25.09c-.3-.61-.64-2.44-.37-2.81.14.02.24.16.32.37.04.1.08.23.11.36.03.13.05.28.07.43.04.3.06.63.08.93.01.3.03.58.06.79-.03-.46-.03-.87-.05-1.24,0-.37,0-.69,0-.98,0-.29.02-.56.03-.81.02-.25.03-.48.03-.71,0-.23,0-.45,0-.68,0-.11-.01-.23-.02-.35-.01-.12-.03-.24-.06-.37-.05-.26-.11-.53-.2-.83-.09-.3-.23-.64-.39-1.01l-.02.57c-.25-.45-.43-.91-.6-1.38-.08-.24-.15-.48-.21-.72-.07-.24-.14-.48-.2-.72-.07-.24-.12-.48-.19-.72-.07-.23-.14-.47-.21-.7-.14-.46-.33-.89-.54-1.28.34.38.59.38.57.12-.55-.83-1.14-1.67-1.74-2.46-.61-.8-1.25-1.58-1.94-2.34-.7-.75-1.45-1.48-2.29-2.15-.84-.67-1.77-1.28-2.79-1.8-.3-.4-.61-.8-.95-1.19l-.28.37c-.27-.1-.47-.18-.62-.26-.15-.07-.26-.13-.33-.19-.14-.11-.14-.21-.12-.29.05-.17.2-.34-.51-.58.54.2.41.23.48.38-.29-.18-.53-.32-.74-.42-.21-.1-.38-.16-.52-.2-.28-.07-.45-.05-.58-.01-.26.08-.38.25-1.09.01.15.15.39.29.66.41.27.12.56.24.8.35.24.12.45.22.53.32.09.11.06.2-.14.3-.55-.33-1.23-.62-1.95-.84-.71-.23-1.46-.38-2.15-.5-.69-.13-1.32-.2-1.81-.33-.25-.05-.46-.12-.62-.21-.17-.09-.28-.19-.35-.32-.32.06-.63.13-.96.18-.16.02-.32.07-.48.11-.16.04-.32.08-.48.12-.16.04-.33.07-.49.12-.16.05-.32.09-.48.14-.32.1-.65.17-.97.29-.32.11-.64.22-.96.33-.31.12-.63.25-.94.37-.16.06-.31.13-.47.2l-.46.21c-.15.07-.31.14-.46.21-.15.07-.3.15-.45.22-.15.07-.3.15-.44.22l-.22.11-.21.12c-.29.16-.57.32-.85.47-.27.17-.54.33-.81.49-.27.16-.52.33-.77.5-1.01.67-1.9,1.36-2.66,2.02-.27.51.35-.12.3.14-.39.15-.82.47-1.22.87-.2.2-.4.42-.59.64-.19.22-.37.45-.54.67-.69.89-1.19,1.65-1.41,1.47-.37.66-.26,1.17-.28,1.42-.84.56-1.7,1.38-2.53,2.31l.69-.61v.13s-.98.87-.98.87v-.06c-1.01,1.18-2.02,2.51-2.99,3.83-.5.65-.97,1.31-1.47,1.92-.25.31-.48.61-.73.9-.24.29-.5.56-.74.83.58-.6.68-.42.7-.16.01.19,0,.42.09.42-.7.42-1.47,1.3-2.18,2.37-.1.15-.19.29-.29.45-.09.15-.18.31-.28.47-.18.32-.36.64-.54.96-.34.66-.66,1.32-.95,1.96.17.07.22.33.49.1l-1.03,1.3.3-.1c-.14.33-.29.67-.45,1-.16.33-.33.66-.51.98-.34.65-.72,1.28-1.07,1.89-.17.31-.33.61-.49.9-.16.29-.3.58-.42.86-.24.56-.43,1.09-.48,1.58.51-1.08.69-1.02,1.01-1.02-.74,1.93-1.38,3.77-2.31,6.02.09-.11.17-.17.24-.16-.06.31-.18.64-.33.96-.15.32-.32.64-.46.94l.41.2c-.25.57-.42,1.26-.61,1.98-.09.36-.18.72-.3,1.08-.06.18-.12.36-.19.54-.07.18-.14.35-.22.52.19.33-.11,1.18-.43,2.17-.08.25-.17.5-.25.76-.08.26-.15.52-.22.78-.13.52-.24,1.02-.24,1.45-.19.63.7-1.33.44.47-.5.06-.59.65-.67,1.23-.08.58-.16,1.13-.7,1.15.06.55.16,1.1.24,1.64l-.56.31c.44.72.31,1.23.07,1.82-.12.3-.25.62-.34.99-.09.37-.14.8-.07,1.32.11-.11.16-.32.23-.22-.13.66-.21,2.19-.46,1,0,.27-.03.71-.04,1.19,0,.24,0,.49-.01.73,0,.25,0,.48,0,.7.03.87.13,1.39.38.53-.3.13-.08-1.42.03-2.08.23.04.3.47.38.95.08.47.17.98.43,1.18-.05.05-.12.27-.19.43l.29.22c-.21,1.04-.16,2.09-.11,3.08.05.99.11,1.91-.06,2.74.15.07.32.42.45,1.15l-.55.15c.08.38.18.76.28,1.14.11.38.2.76.32,1.14.15-.43.33-.86.5-1.28.4,1.2.55,2.28.72,3.34.04.27.09.53.14.79.05.26.11.53.17.79.05.26.15.53.25.81.1.27.21.54.34.81.29,0,.56.26.85.66.07.1.14.21.22.32.08.11.16.23.25.35.17.24.34.52.53.79.2.26.41.54.63.8l.17.2.18.18c.12.12.24.24.37.35.12.11.25.22.38.32.13.1.26.18.4.26.27.16.53.28.79.35-.42-.45-.85-.87-1.21-1.36.17.17.32.34.48.48.16.14.32.27.47.39.15.12.3.24.44.34.14.1.29.19.43.28.28.17.53.33.78.46.26.13.5.24.74.36.12.06.24.11.36.17.12.05.25.1.38.15.25.1.51.22.79.34.29.11.59.23.92.37.08.04.17.07.26.11.09.03.18.07.27.1.19.07.38.15.59.23-.37-.07-.7-.13-.99-.2-.29-.08-.55-.15-.79-.23-.12-.04-.24-.07-.35-.1-.11-.04-.22-.08-.33-.12-.21-.08-.43-.16-.65-.24-.87-.37-1.96-.7-3.96-1.91.24.17.47.33.7.49.23.16.44.33.68.47.46.29.88.6,1.33.86.22.13.44.27.65.4.22.13.44.24.66.36.22.12.44.24.66.35.23.1.45.2.67.3l.34.15c.11.05.22.1.34.14.23.08.46.16.69.24.46.17.95.27,1.43.37.12.02.24.05.37.07.12.01.25.03.38.04.25.03.51.05.76.07.26.02.52.01.78,0,.26-.01.53-.03.79-.05-.14-.12-.47-.22-.64-.33-.17-.1-.16-.19.34-.29.1.06.23.12.39.15.16.03.35.05.54.05.4.01.84,0,1.24-.05.4-.04.76-.08.97-.07.02,0,.04,0,.06,0,.02,0,.04,0,.06.01.03,0,.06.02.08.04.03.04.02.09-.04.18.57-.21.88-.45,1.13-.67.25-.22.44-.41.77-.54l.97-.07c.16-.01.33-.02.49-.04l.48-.06c.65-.08,1.3-.16,1.94-.29l-.15-.06c.36-.22.71-.43,1.06-.62.35-.21.69-.41,1.04-.6.17-.09.35-.18.52-.28.17-.1.34-.19.51-.28.34-.18.68-.35,1.02-.53.33-.18.67-.35,1.01-.52.17-.08.34-.17.51-.25l.5-.26c.33-.17.67-.34,1.01-.51l.99-.53.5-.26.49-.28c.33-.19.65-.37.98-.56.32-.19.64-.4.96-.6.32-.2.64-.41.94-.64.31-.22.61-.45.92-.68.3-.24.59-.49.88-.74.59-.51,1.12-1.07,1.65-1.67l-.3-.13c.41-.22.81-.45,1.21-.68-.68.34.32-.79.19-1.02l.8-.62c.13-.1.27-.21.4-.31l.39-.32,1.57-1.29c-.14-.24-.76-.45-1.31.36.38-.67.95-1.18,1.5-1.7.56-.5,1.14-.96,1.57-1.47l-.49.19c.17-.15.34-.3.5-.45l.48-.47-.31-.21c.36-.41.71-.88,1.05-1.34.08-.12.17-.23.25-.35.08-.12.16-.24.23-.35.15-.23.3-.46.45-.68.59-.87,1.12-1.57,1.58-1.76l-.64-.1,1.62-1.73-1.04.92c.16-.29.33-.58.52-.89.09-.15.19-.31.29-.46.1-.16.19-.32.29-.48.38-.64.79-1.27,1.17-1.86.2-.29.36-.58.52-.83.16-.26.31-.5.44-.71.26-.42.44-.72.5-.85l-.31.11c.04-.22.14-.38.25-.54.11-.16.24-.31.37-.5l-.45.17c.42-.88.73-1.62.97-2.3.03-.08.06-.17.09-.25.03-.08.05-.17.08-.25.05-.16.1-.33.14-.48.09-.32.18-.63.27-.94.09-.31.18-.63.29-.96.11-.33.2-.67.32-1.04.12-.37.26-.75.42-1.18.08-.21.17-.43.27-.66.09-.23.19-.47.29-.72.27-1.15-.3.59-.48.55-.06-.7.63-2.06.87-2.34-.61.18-.99,1.95-.99.52.54-.85-.66.49-.06-1.11.28-.15.55-.31.83-.46.13-.96-.46-.33,0-1.76.36-.79.41-.24.47.18.06.43.13.72.54-.62.13-.69-.09-1.5-.23-2.44-.04-.24-.06-.48-.09-.73ZM162.63,125.82c-.05-.32-.11-.65-.16-.97-.06-.19-.11-.39-.09-.62l.09.62c.17.48.48.79.16.97ZM164.42,123.36c-.06-.26-.07-.45-.06-.62-.08-.66-.17-.84.2-.81.12-.33-.13-.83,0-1.17.43,1.24-.13,1.22-.19,1.98.02.17.05.37.06.62ZM174.84,76.56c.66-.78.53-.24.71-.29-.01.02-.02.03-.03.05-.3.28-.57.44-.68.23ZM220.21,73.94c-.05-.3-.1-.6-.15-.9.05-.08.09-.18.09-.35,0,.4.04.83.07,1.25ZM219.09,67.73c.02.39.39,1.09.65,1.84.07.19.14.37.19.56.05.19.09.37.12.54.05.34.06.65-.05.87-.07-.31-.17-.61-.25-.92l-.13-.46-.15-.45c.03.16.06.33.09.49.03.16.05.32.08.48.05.32.12.62.16.91.02.16.04.31.06.46-.28-1.3-.63-2.58-1.08-3.83.04-.18.09-.41.31-.5ZM216.04,61.55c.2.52.31.97.49,1.03-.07-.28-.27-.63-.42-.94-.15-.31-.24-.59-.1-.71.6.43.89.91,1.08,1.38.1.23.17.47.24.7.08.23.15.46.26.68-.15-.12-.29-.24-.43-.36.29.71.37,1.21.4,1.58.02.18.02.33.01.46-.14-.28-.29-.56-.44-.84.03,0,.05.02.08.03-.38-.69-.84-1.55-1.26-2.33-.42-.79-.8-1.53-.9-2.04.5.27.81.85,1.01,1.37ZM212.53,57.44c.08.27.14.54.2.81-.32-.29-.65-.57-.98-.83.26,0,.51.02.78.03ZM210.11,56.54c1.01.67,1.95,1.46,2.79,2.34.47.49.9,1.01,1.31,1.55-1.18-1.29-2.51-2.44-3.96-3.38,0,0-.01-.01-.02-.02-.14-.16-.28-.33-.43-.49-.16-.16-.33-.32-.53-.45-.1-.07-.21-.13-.33-.18-.12-.05-.25-.1-.39-.14.08.14.16.27.24.41-.39-.21-.79-.4-1.2-.58-.02-.03-.07-.08-.14-.15-.11-.1-.28-.25-.54-.43,1.12.33,2.21.86,3.22,1.51ZM199.03,54.02l.75-.06c-.35.11-.69.2-1.02.34l.27-.29ZM192.47,56.47c.22-.12.45-.23.7-.33.13-.05.25-.1.39-.14.14-.04.27-.08.41-.11.28-.07.56-.14.85-.19.07-.01.14-.02.2-.03-1.03.45-2.03,1-2.99,1.62-.17.04-.33.08-.49.13.18-.38.51-.68.93-.94ZM186.8,60.86c.47-.3,1.02-.9,1.22-1.25-.16,0-.39.13-.62.3-.23.17-.46.35-.64.41.27-.63,1.23-1.13,1.91-1.51.34-.19.61-.36.7-.53.09-.16,0-.33-.41-.51.28-.09.85-.35,1.3-.48.46-.13.8-.16.62.13-.15.1-.33.2-.5.33-.17.13-.36.27-.54.41-.38.29-.75.64-1.12.98-.36.35-.69.71-.98,1.03-.28.33-.5.64-.65.87.01.1-.03.23-.19.41.01-.09.09-.24.19-.41-.02-.12-.13-.18-.29-.18-.18.12-.35.2-.47.2.13-.13.32-.2.47-.2ZM184.6,63.6c.15-.07.3-.14.45-.22-.11.12-.22.24-.32.36-.4.45-.8.9-1.2,1.36.03-.11.11-.25.21-.4.27-.41.69-.9.87-1.1ZM175.97,71.8l.48-.39c-.65,1.41-.4.63-.48.39l-.57.47c.4-.57.53-.59.57-.47ZM174.88,74.41c.09-.21.22-.47.38-.72.31-.51.71-1.02.94-1.19-.44.73-1.52,2.68-1.39,2.39-.05-.09-.01-.26.07-.47ZM172.63,80.74s-.06-.03-.09-.04c.04,0,.07,0,.09.04ZM169.99,84.58c.32-.19.61-.13.73.03.74-.95.28-.91.46-1.51l.29.57c-.24.35-.44.62-.62.83-.18.22-.34.38-.5.53-.33.3-.68.53-1.2,1.03.19-.84.54-1.28.85-1.47ZM168.91,85.24c.01-.19.07-.42.19-.68l-.19.68c-.04.43.1.76.11,1.08,0,.32-.11.62-.67,1.03.19-.7.36-1.41.56-2.11ZM164.66,114.77c0,.38-.01.76-.01,1.13,0,.12,0,.24,0,.35-.14-.06-.29-.04-.51-.2.26-.39.42-.82.52-1.29ZM164.68,130.32c-.11-.46-.15-.69-.32-.99-.13.3-.09,1.32-.42.69.02-.14,0-.34-.04-.56-.03-.22-.06-.47-.09-.71-.06-.47-.06-.89.11-.96,0,.36.09.67.21.93.13.26.27.49.41.68.27.38.44.64.13.92ZM165.49,126.8c.15-.13.2-.37.19-.65,0-.13-.02-.27-.04-.42.08.33.17.67.26,1-.05.16-.18.2-.41.07ZM174.19,138.59c-.13-.09-.28-.18-.41-.27-.14-.09-.27-.19-.39-.28-.25-.17-.48-.3-.65-.33-.17-.03-.28.04-.3.28-.05-.16-.1-.32-.15-.47l.31.13-.54-.43-.27-.22-.25-.24c.11.04.21.08.31.12.1.04.2.08.29.12.19.08.36.18.52.28.08.05.16.11.23.15.08.05.15.1.23.15.15.1.28.21.41.32.26.23.5.42.73.61.11.09.22.18.33.26.05.04.11.08.16.11.05.03.11.06.16.08-.2-.06-.45-.23-.72-.4ZM176.78,137.9c.14.03.27.05.41.08.02.03.03.07.05.1-.15-.05-.31-.11-.46-.18ZM187.17,139.43c-.4.02-.77-.08-1.09-.1-.09,0-.17.01-.27,0,.09-.01.18-.01.27,0,.27-.01.49-.07.68-.15.19-.08.35-.16.5-.25.3-.17.6-.29,1.12-.13-.39.45-.81.6-1.2.63ZM190.07,137.78c-.25.1-.51.19-.74.25-.45.13-.74.15-.46-.02.72-.42.48-.48.17-.51-.31-.03-.67-.03-.22-.34l-.38.19-.19.09-.2.09c.07-.06.14-.1.2-.15.06-.04.12-.08.17-.12.11-.06.2-.11.28-.13.17-.05.29-.03.41,0,.24.06.45.18.87-.08-.19.12-.38.23-.57.34-.16.28.1.24.43.15.08-.02.17-.04.26-.07.08-.03.17-.05.24-.07.15-.03.28-.04.34.01-.16.12-.38.25-.63.35ZM201,127.71c.03-.16-.29-.09-.68.14.41-.4.82-.8,1.22-1.21.09.18-.32.52-.54,1.06ZM213.43,114.4c.2-.99.35-1.03.76-1.54.03.25-.35,1.03-.76,1.54ZM215.29,112.41c-.25.16-.56.29-.9.79.11-.4.23-.65.35-.83.12-.18.24-.28.37-.35.25-.15.52-.21.78-.63-.13.65-.34.86-.59,1.02ZM218.82,95.9c-.08.09-.14.12-.19.13.09-.35.18-.7.26-1.06.1-.07.17.01.19.34-.08.2-.18.39-.26.58Z"/>
      <path class="cls-1" d="M204.36,129.29c.06-.03.13-.07.22-.12-.07.04-.14.08-.22.12Z"/>
      <path class="cls-1" d="M179.72,66.4v.07c.1-.11.19-.22.29-.32l-.29.26Z"/>
      <path class="cls-1" d="M171.6,152.11c.13.36.31.72.86,1.53l-.36-.76-.37-.75-.38-.75c-.04-.07-.07-.14-.11-.21.06.14.11.25.15.36.09.23.14.41.21.59Z"/>
      <path class="cls-1" d="M170.97,150.63c.09.18.18.36.27.53-.07-.15-.16-.33-.27-.53Z"/>
      <path class="cls-1" d="M170,150.34c.23.55.47,1.1.69,1.66l.32.02c-.17-.28-.33-.56-.5-.84l-.51-.83Z"/>
      <path class="cls-1" d="M47.28,209.13l-.38-.18c.55.77.52.55.38.18Z"/>
      <path class="cls-1" d="M42.59,174.44l.08.64c.05-.12.1-.26.15-.39-.03-.16-.1-.25-.23-.25Z"/>
      <path class="cls-1" d="M54.92,218.05c.08.11.2.24.36.39.08.08.17.16.26.24.1.08.21.17.33.26-.07-.1-.15-.21-.22-.31-.08-.1-.16-.21-.24-.31-.17-.21-.35-.41-.53-.62-.13,0-.12.13.05.35Z"/>
      <path class="cls-1" d="M45.57,165.24c.14-.29.26-.57.38-.84.12-.27.25-.53.38-.81-.12.17-.26.4-.39.67-.13.28-.26.61-.37.98Z"/>
      <path class="cls-1" d="M183.84,190.06c-.04.3-.09.67-.13.96-.05.29-.12.51-.17.52-.02-.16-.01-.34-.02-.53,0-.2,0-.41,0-.64.02-.45.06-.94.11-1.42.07-.95.17-1.82.25-2.13-.27.33-.37,1.35-.45,1.96-.05.31-.1.51-.15.47-.06-.04-.09-.31-.2-.97.14-.92.01-.61-.13-.47-.07.07-.15.09-.2-.1-.02-.1-.04-.25-.05-.47,0-.11,0-.25,0-.4,0-.15,0-.33,0-.53.21-.42.42-.85.63-1.29-.05-.45-.1-.7-.17-.86-.07-.16-.13-.23-.2-.34-.13-.21-.24-.55-.34-1.96-.06-1.62.26-.67.52.06.12.36.22.67.27.55.03-.06.04-.22.04-.53-.01-.31-.06-.77-.13-1.43-.05-.33-.12-.66-.21-.99-.1-.33-.22-.66-.35-1.01-.13-.34-.27-.69-.42-1.06-.16-.36-.33-.73-.5-1.13-.17-.39-.33-.8-.51-1.23-.18-.43-.36-.88-.52-1.36-.08-.24-.16-.49-.25-.74-.09-.25-.17-.51-.25-.78-.08-.27-.16-.55-.23-.83-.03-.14-.07-.29-.11-.44-.04-.15-.07-.3-.11-.45-.82-2-.9-1.37-.98-.97-.04.2-.08.35-.21.09-.07-.13-.15-.36-.28-.73-.13-.37-.3-.88-.53-1.58l.41,1.85v.04c-.44-1.35-.93-2.7-1.45-4.02-.05-.17-.11-.34-.17-.5.02.09.05.17.07.24-.55-1.4-1.14-2.77-1.75-4.13-.12-.27-.25-.54-.37-.82-.05-.18-.12-.37-.19-.58-.07-.18-.14-.36-.22-.56-.08-.19-.18-.39-.27-.6-.19-.41-.41-.85-.64-1.29-.47-.88-.98-1.79-1.48-2.6-.25-.4-.47-.79-.69-1.13-.02-.03-.04-.07-.06-.1-.24-.41-.47-.82-.72-1.23-.05-.1-.09-.19-.12-.26-.03-.03-.06-.05-.07-.07-.91-1.52-1.87-3.05-2.87-4.56l.32.05c-.22-.21-.5-.54-.81-.94-.31-.39-.65-.85-.96-1.3-.16-.22-.31-.45-.44-.66-.14-.21-.27-.41-.38-.6-.22-.37-.36-.67-.38-.84.16,0,.39.18.66.48.27.3.59.72.9,1.19.31.47.64.97.94,1.44.29.47.57.91.79,1.23-1.82-2.9-2.63-4.46-3.42-5.88-.4-.71-.79-1.38-1.34-2.14-.27-.38-.58-.79-.94-1.23-.37-.44-.79-.92-1.28-1.46l.47.88c-.33-.32-.64-.65-.95-.99-.31-.34-.6-.68-.89-1.03-.14-.18-.29-.35-.42-.53-.14-.18-.28-.36-.42-.53-.28-.36-.55-.72-.81-1.08-.53-.72-1.06-1.42-1.58-2.1-.53-.67-1.06-1.31-1.6-1.89.7.57.98.56.77.18-2.57-2.43-5.06-4.87-7.74-7.32-2.68-2.44-5.52-4.89-8.84-7.18l-.8-.97-.82-.95-.39.28c-.83-.54-1.28-.85-1.5-1.06-.22-.21-.23-.32-.2-.4.03-.09.11-.15.04-.28-.03-.07-.11-.15-.23-.26-.13-.11-.32-.25-.59-.41.41.26.56.39.63.48.07.08.05.13.1.23-1.78-1.49-2.4-1.73-2.81-1.8-.21-.04-.36-.03-.6-.1-.12-.04-.26-.1-.44-.19-.18-.09-.39-.23-.66-.4.21.25.57.56.97.86.2.15.42.3.63.45.11.07.21.15.31.22.1.07.2.15.3.22.76.56,1.26.98.6.94-.88-.73-1.95-1.48-3.05-2.2-.28-.18-.56-.35-.84-.53-.14-.09-.28-.18-.42-.26-.14-.09-.28-.17-.42-.26-.29-.17-.57-.34-.85-.5-.28-.16-.56-.31-.84-.46-1.1-.59-2.11-1.08-2.87-1.5-.38-.21-.7-.4-.93-.58-.23-.18-.38-.34-.43-.5-1.08-.28-2.2-.53-3.34-.74-1.14-.21-2.32-.39-3.51-.5-1.19-.12-2.4-.19-3.6-.22-1.21-.01-2.42.03-3.62.12-1.2.09-2.38.25-3.53.45-1.15.2-2.28.46-3.35.76-.13.04-.27.07-.4.11-.13.04-.26.08-.4.12-.26.08-.53.16-.78.25-.51.18-1.02.35-1.5.55-.49.18-.96.39-1.41.59-.23.1-.45.21-.67.31-.22.11-.44.2-.65.31-.82.65.64-.17.36.16-.36.1-.77.26-1.2.46-.41.2-.85.44-1.3.7-.45.26-.9.55-1.34.85-.44.3-.89.6-1.3.91-.41.3-.81.59-1.17.86-.36.27-.68.51-.95.71-.55.39-.93.6-1.02.49-1.03.93-1.25,1.6-1.46,1.94-1.61.86-3.42,2.09-5.24,3.5l1.4-.95-.09.18-.99.67-.5.34-.49.35.05-.08c-2.25,1.79-4.54,3.86-6.75,5.93-2.21,2.07-4.33,4.13-6.3,5.86,1.97-1.69.55.27.83.29-.22.14-.46.3-.71.48-.35.27-.73.58-1.12.93-.2.18-.4.36-.6.55-.2.2-.41.4-.61.61-.41.42-.85.87-1.28,1.35-1.73,1.9-3.48,4.18-4.97,6.29.17.09.05.5.53.11-.34.36-.69.72-1.03,1.09l-1.02,1.11.41-.19c-1.47,2.23-3.19,4.44-4.68,6.55-1.5,2.1-2.77,4.11-3.41,5.78.27-.48.51-.82.69-1.08.18-.26.32-.42.44-.53.23-.22.37-.21.55-.23-.46.84-.93,1.66-1.37,2.51-.22.42-.45.84-.67,1.27-.22.43-.44.86-.66,1.29-.23.43-.44.88-.66,1.33-.22.45-.46.9-.67,1.37-.23.46-.45.94-.69,1.42-.23.49-.46.98-.71,1.49.14-.2.26-.32.33-.31-.18.56-.47,1.15-.75,1.74-.28.59-.6,1.17-.85,1.73l.37.31c-.24.53-.46,1.1-.68,1.71-.21.61-.41,1.26-.62,1.91-.11.33-.2.66-.3,1-.1.34-.21.67-.32,1.01l-.17.5c-.05.17-.11.34-.16.5-.11.33-.23.66-.35.99.03.15.02.36-.02.62-.04.26-.09.58-.18.93-.08.36-.18.75-.3,1.18-.06.21-.11.43-.17.66-.06.23-.11.46-.17.7-.06.24-.12.48-.18.72-.03.12-.06.25-.09.37-.03.12-.05.25-.08.37-.1.5-.2,1.01-.29,1.5-.1.49-.14.99-.19,1.45-.04.47-.07.91-.08,1.32-.08.62.07-.05.25-.44.09-.19.17-.31.21-.17.05.14.03.54,0,1.41-.25.11-.39.45-.47.9-.04.23-.07.48-.08.74,0,.27,0,.55,0,.82,0,.56,0,1.1-.06,1.53-.05.43-.16.75-.42.83.1.51.19,1.03.3,1.53l.38,1.52-.44.76c.73,1.24.76,2.22.86,3.44.02.3.05.61.09.94.03.33.08.68.16,1.04.04.18.08.37.12.57.05.19.11.39.18.6.07.21.14.42.22.64.09.22.19.44.29.67.03-.24-.09-.66.06-.49.04.16.1.34.16.53.06.19.12.4.19.6.14.41.27.81.37,1.1.2.59.19.79-.41-.23.22.49.56,1.29.97,2.14.1.21.21.43.32.64.11.21.23.43.34.64.23.42.47.82.68,1.19.23.36.44.68.61.93.18.25.33.43.42.53.19.18.17,0-.16-.76-.03.09-.14,0-.3-.23-.16-.22-.37-.55-.57-.95-.21-.39-.43-.83-.61-1.26-.09-.21-.18-.42-.27-.6-.08-.19-.15-.37-.21-.52.12-.01.29.16.49.44.21.27.44.64.7,1.02.26.38.53.77.8,1.09.27.32.52.57.73.66.01.11.18.5.29.79l.48.21c.93,1.75,2.21,3.33,3.49,4.69,1.29,1.38,2.6,2.54,3.62,3.67.11,0,.33.07.66.25.33.19.79.45,1.37.84l-.24.52c1.27.76,2.61,1.43,3.99,1.98-.55-.51-1.06-1.06-1.55-1.59.27.13.54.24.8.36.13.06.26.12.39.18.13.06.26.11.39.17.26.11.51.22.75.33.25.1.5.2.74.31.12.05.24.1.36.16.12.05.24.1.36.14.24.1.48.19.71.29.24.1.47.17.71.26.24.08.47.18.7.25.24.08.47.15.7.23.12.04.23.08.35.11.12.03.24.07.35.1.47.13.94.26,1.42.35.24.05.48.09.72.14.12.02.24.04.36.06.12.02.24.03.36.05.49.05.98.11,1.49.12.13-.12.35-.21.63-.28.14-.03.31-.06.48-.08.18-.02.37-.04.57-.06.41-.05.87-.08,1.37-.11.5-.05,1.03-.1,1.58-.15.54-.08,1.11-.14,1.67-.24.28-.05.55-.11.83-.17.27-.06.55-.12.81-.19.26-.07.52-.15.77-.23.12-.04.25-.08.37-.12.12-.04.24-.09.35-.14.45-.19.88-.39,1.23-.62-.48.11-.96.21-1.44.31-.48.1-.97.18-1.46.27.38-.09.75-.18,1.09-.27.34-.09.66-.19.97-.28.61-.18,1.15-.38,1.64-.56.5-.18.94-.37,1.36-.55.43-.17.82-.36,1.21-.53,1.56-.71,3.04-1.42,5.62-2.41-1.03.56-1.82.96-2.52,1.31-.35.17-.67.33-.99.49-.32.16-.64.31-.97.47-.33.17-.68.33-1.07.52-.19.1-.4.2-.61.3-.22.1-.45.21-.69.33-.25.12-.5.24-.78.37-.28.13-.58.26-.9.41-.16.07-.33.15-.5.23-.17.07-.36.15-.54.23-.19.08-.38.16-.58.25-.1.04-.2.09-.3.13-.11.04-.21.08-.32.12,3.51-1.21,6.37-2.29,9.1-3.36,1.36-.54,2.68-1.09,3.99-1.68,1.31-.59,2.6-1.23,3.93-1.95-.46-.05-1.91.43-.64-.38.64-.02,1.94-.57,3-.99.53-.2,1.01-.38,1.31-.45.3-.07.43-.03.28.17.82-.39,1.26-.75,1.63-1.04.37-.29.66-.56,1.18-.75,2-.35,3.99-.55,5.92-.55l-.19-.09c.15-.04.3-.08.45-.12l.23-.06.23-.04c.3-.06.6-.11.9-.16l.23-.04c.08-.01.15-.02.23-.03.15-.02.3-.03.45-.05.15-.01.3-.03.45-.04.15-.01.3-.03.45-.03.3,0,.6-.01.9-.02.15,0,.3,0,.45,0l.45.02c.3.02.59.03.89.05.3.04.59.07.88.11l.44.06.44.08c.29.06.58.11.87.17.29.06.58.14.87.21.29.07.58.14.86.23.29.09.57.17.85.26.28.09.57.19.85.29.56.19,1.13.42,1.68.64.28.11.56.23.84.35.28.12.56.23.84.36.56.26,1.11.5,1.67.77.28.13.56.27.84.4.28.14.56.27.84.41.57.28,1.14.55,1.71.83,2.3,1.13,4.7,2.29,7.37,3.28l-.08-.36c.66.42,1.34.83,2.02,1.24-.42-.28-.16-.26.27-.16.55.12,1.38.35,1.51.26,2.23,1.08,4.6,2.07,7.14,2.83.11-.11.09-.34-.2-.58-.14-.12-.35-.24-.64-.35-.14-.06-.31-.1-.5-.16-.18-.05-.39-.11-.62-.15.72.12,1.45.25,2.16.43.36.08.72.16,1.08.25.18.04.36.09.54.13.18.04.36.08.54.12,1.44.34,2.89.56,4.22.59-.3-.08-.61-.18-.9-.28l.67.07c.22.03.45.03.67.04l.67.03c.23.01.45.02.68.02l-.06-.37c.28-.01.55-.03.84-.05.28-.02.57-.03.86-.08.29-.04.58-.08.87-.12.29-.05.58-.11.86-.17.14-.03.29-.06.43-.09.14-.03.28-.07.42-.11.28-.07.56-.15.83-.22.27-.08.54-.17.8-.25.13-.04.26-.08.39-.12.13-.05.25-.09.38-.14.25-.09.5-.18.74-.26.24-.09.47-.18.69-.27.22-.09.44-.17.65-.25.2-.09.4-.17.59-.24.38-.14.72-.28,1.02-.39.3-.11.57-.17.78-.21-.25-.09-.5-.19-.74-.28,1.43-.59,2.82-1.3,4.15-2.11-.2.11-.39.22-.59.32l-.6.3c-.2.1-.4.2-.6.29l-.61.27c.27-.18.55-.36.83-.56.28-.2.56-.4.85-.6.28-.21.57-.43.86-.65.29-.22.57-.46.86-.68,1.14-.93,2.23-1.94,3.18-2.91,1.91-1.94,3.21-3.75,3.51-4.2l-.44.26c.18-.38.4-.68.62-.98.22-.3.48-.59.72-.95-.21.14-.41.27-.63.4,1.01-1.61,1.67-3.03,2.18-4.32.51-1.3.87-2.48,1.19-3.7.15-.61.31-1.23.44-1.88.04-.16.07-.33.11-.49.03-.17.06-.34.1-.51.06-.34.14-.7.2-1.06.06-.36.12-.74.19-1.13.06-.39.15-.8.2-1.23.06-.43.12-.87.19-1.34.03-.23.08-.47.1-.72.03-.25.05-.5.08-.76.03-1.13-.02-.82-.1-.22ZM181.27,180.56l.04,1.17c-.03.21-.07.31-.11.35-.07-.67-.16-1.34-.26-2.01.06-.19.16-.1.33.48ZM165.3,144.13c-.33-.47-.66-.93-1-1.4-.02-.14-.08-.32-.24-.58.38.63.82,1.32,1.24,1.98ZM158.48,134.6c.18.29.52.71.94,1.19.21.24.44.49.67.75.24.26.47.54.71.82.96,1.1,1.85,2.27,2.05,3.02-.73-.92-1.46-1.85-2.21-2.75.72,1.01,1.41,1.99,2.05,2.89.18.26.35.51.52.76-1.48-1.98-3.03-3.93-4.64-5.84-.11-.28-.26-.66-.09-.82ZM149.07,124.01c.18.19.36.39.52.59.16.2.32.41.47.6.29.39.55.76.77,1.04.22.28.4.48.53.54-.28-.42-.77-.96-1.16-1.44-.39-.48-.68-.9-.57-1.04.53.36.95.73,1.32,1.08.18.18.35.36.51.54.16.18.3.36.44.54.55.71.99,1.39,1.57,2.06l-.8-.56c1.27,1.6,1.74,2.45,2.05,3.08-.4-.43-.8-.87-1.2-1.3.04.01.08.03.13.05-.51-.53-1.05-1.13-1.62-1.75-.28-.31-.57-.62-.85-.94-.28-.32-.56-.63-.83-.94-1.08-1.24-2.04-2.38-2.45-3.14.42.26.81.61,1.17.99ZM143.04,118.42l.61,1.16-.89-.77c-.3-.26-.6-.5-.9-.76.39.12.78.24,1.17.37ZM139.07,116.13c1.75,1.37,3.45,2.85,5.1,4.38.89.84,1.77,1.7,2.62,2.57-2.42-2.22-4.89-4.31-7.39-6.25-.8-.84-1.58-1.76-2.99-2.54.16.21.29.42.45.63-.68-.49-1.36-.97-2.03-1.43-.1-.13-.44-.46-1.14-1.11,1.83,1.11,3.63,2.37,5.39,3.74ZM120.53,105.96c.22.06.44.13.66.19.22.07.44.13.66.2-.65-.12-1.29-.23-1.94-.31l.62-.09ZM110.61,105.19c.65.03,1.31.11,1.97.2-2.12,0-4.23.18-6.32.58-.31,0-.62.01-.92.03,1.21-.71,3.18-.94,5.27-.81ZM95.11,109.72c.47-.21,1.02-.52,1.54-.82.51-.31,1-.58,1.28-.81-.23,0-.71.17-1.19.38-.24.11-.49.22-.71.32-.22.1-.42.19-.57.23.11-.1.23-.2.37-.3.14-.1.29-.19.45-.28.16-.09.33-.18.51-.27.18-.09.36-.17.55-.24.19-.08.38-.16.57-.23.19-.07.39-.13.58-.2.38-.13.76-.24,1.1-.35.34-.11.66-.19.92-.29.26-.09.47-.18.61-.27.28-.18.27-.37-.23-.61.51-.08,1.62-.3,2.48-.36.21-.02.41-.03.57-.03.17,0,.3,0,.39.03.18.04.19.11-.08.25-.33.06-.69.17-1.08.27-.39.1-.79.24-1.22.37-.84.29-1.73.63-2.57,1.04-.43.19-.83.41-1.23.61-.39.21-.76.43-1.11.63-.34.22-.66.42-.94.61-.28.2-.52.37-.72.53-.06.13-.22.3-.61.53.09-.12.32-.31.61-.53.06-.15-.06-.22-.3-.21-.35.16-.68.28-.87.28.3-.18.63-.27.87-.28ZM87.71,115.05c.69-.58,1.67-1.3,2.08-1.57.26-.1.53-.21.81-.33-1.16.79-2.32,1.61-3.47,2.47.12-.15.34-.35.59-.57ZM72.01,126.28l.89-.65c-1.81,2.19-.95.99-.89.65l-1.07.78c.92-.91,1.09-.95,1.07-.78ZM68.41,131.09c0-.25.64-1.06,1.39-1.88.76-.81,1.62-1.64,2.04-1.93-.27.29-.64.7-1.04,1.15-.4.45-.84.92-1.21,1.36-.76.87-1.35,1.53-1.17,1.31ZM68.42,133.12s-.05.06-.07.08c-.57.47-1.02.76-1.02.46,1.35-1.29.84-.45,1.1-.54ZM61.83,140.53s-.05-.04-.08-.05c.05,0,.07,0,.08.05ZM55.91,147.43c.14-.14.28-.26.4-.34.49-.35.8-.29.84-.04.36-.41.59-.72.75-.95.16-.23.24-.4.3-.55.11-.3.11-.52.41-1.03v.89c-.26.3-.49.57-.69.81-.2.24-.39.45-.56.64-.34.38-.63.66-.91.93-.28.27-.55.51-.87.79-.16.14-.33.3-.51.47-.19.17-.39.36-.61.58.17-.36.35-.67.52-.94.17-.28.33-.52.49-.72.16-.21.31-.38.45-.53ZM53.26,150.97l.46-.89c.31-.6.61-1.19.94-1.78.13-.32.33-.7.62-1.15l-.62,1.15c-.3.72-.32,1.25-.5,1.77-.17.53-.5,1.05-1.34,1.8l.44-.9ZM46.84,204.01c-.03-.24-.07-.48-.12-.73-.05-.25-.1-.5-.17-.75-.08-.3-.17-.62-.26-.93.36.85.75,1.69,1.17,2.51-.01,0-.02,0-.03,0-.16-.02-.28.06-.59-.1ZM54.31,214.02c-.23-.21-.42-.38-.58-.51-.15-.14-.26-.25-.33-.34-.14-.18-.13-.27.04-.36-.08-.13-.2-.26-.33-.39-.12-.14-.27-.27-.41-.41-.14-.14-.28-.27-.41-.41-.12-.14-.23-.28-.3-.42.45.4.78.68,1.01.94.23.26.38.46.49.65.11.19.2.38.31.58.12.2.26.41.5.67.24.22.53.45.87.77-.4-.3-.67-.53-.87-.77ZM56.37,218.34l-.39-.26-.38-.27c-.32-.19-.65-.4-.94-.7.3.25.62.47.94.7.41.25.81.4,1.09.55.28.15.46.29.46.49-.27-.16-.52-.34-.78-.51ZM59.54,216.81c.58.31,1.16.6,1.76.87.09.09.13.16.11.22-.03.07-.14.11-.35.12-.11-.34-.75-.75-1.53-1.21ZM64.95,221.25c-.28-.08-.54-.15-.86-.21.19.16.69.44,1,.63.31.18.41.32-.25.22-.21-.12-.55-.26-.93-.41-.39-.16-.82-.34-1.22-.51-.4-.19-.76-.38-1.03-.54-.26-.17-.41-.31-.38-.4.14.08.28.17.42.23.14.07.28.13.42.18.28.11.55.21.81.27.53.13,1.02.21,1.44.25.84.1,1.42.13,1.6.57-.42-.12-.74-.21-1.02-.29ZM87.58,216.59c-.52.15-1.09.32-1.59.48-.5.16-.93.32-1.17.47-.25.15-.31.3-.07.45l-.7-.09.52-.25-1.15.34-1.16.31c.35-.19.69-.36,1.02-.5.33-.15.65-.29.97-.4.63-.23,1.23-.41,1.79-.55.56-.15,1.08-.26,1.56-.36.48-.11.91-.21,1.29-.34-.32.13-.8.28-1.32.44ZM90.72,213.63c.24-.11.48-.22.71-.33l.15.03c-.29.1-.57.2-.86.29ZM109.09,210.33c-.35.07-.67.07-.97.07-.61,0-1.15-.13-1.66-.13-.14,0-.27.02-.44.02.14-.02.29-.02.44-.02.43-.03.79-.08,1.11-.15.32-.07.6-.16.87-.23.27-.06.54-.11.82-.11.14,0,.29,0,.45.03.16.03.32.08.5.15-.41.16-.77.29-1.12.35ZM113.96,209.61c-.2,0-.41,0-.63,0-.22,0-.44-.02-.65-.04-.21-.01-.42-.02-.61-.03-.75-.04-1.22-.12-.68-.18,1.36-.14,1.04-.28.58-.41-.45-.14-1.04-.27-.12-.39l-.73.04-.73.08c.29-.07.54-.13.75-.16.21-.02.39-.03.54-.02.3.01.49.07.66.14.08.04.16.07.25.11.08.04.17.08.27.11.21.06.47.1.89.08l-1.11.05c-.22.1-.22.16-.1.21.12.04.36.08.64.12.28.03.58.07.83.11.25.05.44.12.49.2-.16,0-.34,0-.54,0ZM140.14,216.16c-.21-.06-.48-.14-.77-.23-.26-.08-.55-.15-.85-.21.2.01.01-.2-.4-.48-.14-.1-.31-.2-.49-.31,1,.44,1.99.87,2.99,1.27-.07.05-.23.02-.47-.04ZM171.29,215.27c.31-.35.54-.64.75-.86.2-.22.37-.39.53-.54.32-.31.63-.51,1.09-.92-.15.4-1.33,1.6-2.37,2.33ZM176.11,211.57c-.24.26-.46.43-.68.57-.46.29-.93.53-1.78,1.32.24-.31.44-.57.63-.79.18-.22.34-.4.49-.55.15-.15.28-.26.4-.36.12-.1.23-.18.34-.24.22-.14.42-.23.65-.39.23-.16.47-.37.78-.74-.31.55-.57.92-.82,1.18Z"/>
      <path class="cls-1" d="M139.24,219.8c.11.07.25.16.46.27-.15-.09-.3-.18-.46-.27Z"/>
      <path class="cls-1" d="M80.83,117.91l-.05.1c.22-.18.42-.34.63-.5-.2.13-.39.27-.58.4Z"/>
      <path class="cls-1" d="M62.62,84.06l.35.62c-.33-.64-.09-.73-.81-1.49.15.29.3.59.46.88Z"/>
      <path class="cls-1" d="M62.97,84.68c.04.08.08.16.14.25l-.14-.25Z"/>
      <polygon class="cls-1" points="63.24 83.96 63.91 84.89 63.52 83.89 63.24 83.96"/>
      <path class="cls-1" d="M94.43,12.61l.29.05c-.32-.43-.34-.29-.29-.05Z"/>
      <path class="cls-1" d="M103.33,30.98l-.33-.25c0,.08.02.16.03.24.09.06.19.07.3.01Z"/>
      <path class="cls-1" d="M90.27,6.21c.07.33.17.65.31.96.2-.03.13-.41-.31-.96Z"/>
      <path class="cls-1" d="M104.89,36.37c.06.38.12.7.18,1.05.03-.25,0-.63-.18-1.05Z"/>
      <path class="cls-1" d="M48.1,44.16l-.38,2.53.35-1.46c.03.35.05.73.07,1.11,0,.19.01.39.02.59,0,.2.02.4.03.6.04.81.06,1.63.07,2.38,0,.38.03.73.04,1.06.02.33.03.63.04.9.02.53.04.92.06,1.07l.19-.28c.09.22.1.43.1.64,0,.21-.02.43-.02.67l.27-.42c.15,1.05.32,1.9.5,2.66.02.09.05.19.07.28.03.09.05.18.08.27.05.18.11.35.16.52.11.34.21.68.32,1.01.1.34.21.68.31,1.04.05.18.11.36.16.55.06.19.11.38.17.58.11.4.22.84.33,1.32.05.24.11.49.16.75.06.26.12.54.18.82.44,1.21-.1-.71.08-.78.46.6.68,2.24.63,2.63.4-.52-.32-2.35.51-1.04.05,1.09.26-.83.69.98-.15.3-.28.6-.41.9.45.95.57.03,1.04,1.6.16.93-.2.46-.5.11-.3-.35-.53-.58-.08.87.3.7.95,1.31,1.62,2.09.17.19.33.4.5.62.17.22.34.45.5.7.32.5.6,1.08.81,1.79.7,1.06.8.64.88.37.09-.27.17-.41.84,1.17l-.27-1.05c.35.74.72,1.47,1.1,2.2.04.09.07.18.12.26-.02-.04-.03-.09-.04-.13.4.77.82,1.53,1.25,2.28.09.15.17.3.26.45.03.11.07.22.12.35.08.2.19.43.32.66.13.23.28.47.44.72.16.24.33.49.5.73.17.24.35.47.52.69.19.24.36.47.52.67.16.23.32.47.49.7.03.05.05.09.06.13.02.01.03.02.05.02.61.86,1.25,1.7,1.91,2.51l-.26.05c.16.09.36.25.58.46.22.2.43.45.65.68.42.48.77.97.76,1.21-.26.11-.68-.29-1.11-.79-.22-.25-.42-.54-.62-.8-.19-.26-.38-.5-.53-.67.3.4.56.76.78,1.09.22.33.42.62.59.89.17.27.31.52.44.75.14.23.27.44.39.65.13.21.25.41.4.61.07.1.14.21.22.31.08.1.17.2.26.3.38.41.85.87,1.57,1.37l-.31-.53c.48.27.91.6,1.31.96.42.34.8.72,1.17,1.1.38.38.76.74,1.14,1.09.09.09.19.18.28.26.1.08.2.16.3.23.2.15.4.29.6.42-.52-.19-.73-.07-.58.16,1.91.98,3.79,1.96,5.82,2.78,1.06.43,2.19.76,3.38.95.59.09,1.2.15,1.82.17.62.01,1.24-.01,1.87-.09.26.08.52.16.79.23.27.06.54.14.82.19l.02-.46c.3-.07.54-.13.72-.17.19-.03.32-.05.42-.05.2,0,.26.07.29.16.03.08.04.18.14.23.1.05.29.04.69-.09-.61.18-.52.07-.67,0,.75-.07,1.22-.19,1.52-.31.3-.13.43-.24.52-.36.09-.12.13-.23.25-.35.12-.11.31-.24.7-.38-.46-.05-1.18.23-1.76.36-.58.14-.98.17-.74-.25.7-.08,1.48-.3,2.23-.6.76-.3,1.5-.68,2.16-1.06,1.33-.75,2.33-1.48,2.88-1.25.11-.13.23-.27.34-.4.11-.14.22-.28.33-.42.11-.14.22-.28.33-.43l.16-.22c.05-.07.1-.14.15-.21.4-.57.83-1.14,1.21-1.74.78-1.19,1.51-2.42,2.17-3.67,1.31-2.49,2.3-4.99,2.9-7.04-.03-.61-.24.31-.33.06.53-.73.77-2.13.9-3.32.06-.6.12-1.14.19-1.53.07-.39.15-.63.29-.61,0-.82-.36-1.22-.47-1.46.45-1,.78-2.24,1.03-3.57l-.29.96-.06-.12.41-1.36.03.06c.28-1.66.48-3.47.64-5.24.02-.22.05-.44.07-.66.02-.22.04-.44.06-.66.04-.44.09-.87.15-1.29.05-.42.1-.84.17-1.25.06-.41.14-.8.21-1.19-.34,1.52-.59.09-.81.19.39-.79.59-2.02.65-3.42.02-.38.02-.77.01-1.16,0-.4-.02-.8-.04-1.2-.05-.8-.12-1.6-.2-2.36-.19.03-.36-.19-.48.17l.21-1.78-.2.25c-.05-.39-.11-.78-.14-1.18-.04-.4-.06-.8-.07-1.2-.02-.4-.04-.8-.05-1.19-.01-.39-.01-.78-.03-1.16-.05-1.52-.16-2.91-.57-3.89.14,1.29-.05,1.33-.32,1.51-.39-2.21-.81-4.28-1.22-6.9-.02.15-.06.26-.12.28-.25-.65-.26-1.5-.34-2.21l-.46.03c-.1-.67-.32-1.41-.55-2.18-.24-.76-.45-1.57-.56-2.38-.34-.21-.54-1.17-.81-2.27-.06-.28-.13-.56-.2-.85-.07-.28-.15-.57-.24-.85-.17-.55-.35-1.08-.59-1.48-.18-.69.13,1.62-.63-.21.39-.32.15-.92-.1-1.5-.25-.58-.48-1.15-.04-1.44-.18-.24-.36-.47-.55-.71l-.56-.7.3-.58c-.77-.45-.94-.99-1.07-1.67-.06-.34-.13-.7-.26-1.1-.13-.39-.32-.82-.67-1.27-.04.16.04.39-.08.32-.13-.34-.39-.88-.51-1.22-.06-.17-.09-.28-.04-.29.05-.01.17.08.39.33-.15-.26-.39-.68-.65-1.14-.13-.23-.27-.47-.42-.7-.14-.23-.28-.45-.42-.65-.55-.8-.94-1.23-.64-.3.18-.28.91,1.29,1.19,1.97-.22.08-.52-.29-.87-.69-.17-.2-.35-.41-.53-.57-.18-.16-.36-.28-.53-.3,0-.08-.06-.32-.1-.5l-.38-.05c-.11-.27-.24-.52-.38-.78-.14-.25-.27-.5-.43-.74-.32-.47-.63-.94-.97-1.37-.17-.22-.33-.43-.48-.64-.16-.21-.32-.41-.46-.62-.15-.21-.28-.41-.4-.62-.13-.2-.24-.41-.34-.62-.09.01-.22-.03-.41-.16-.09-.06-.19-.15-.32-.25-.12-.1-.26-.22-.41-.36l.35-.45-.49-.43c-.16-.14-.34-.28-.51-.42-.35-.27-.68-.56-1.05-.81.18.46.32.94.46,1.4-.14-.1-.28-.2-.41-.31-.07-.05-.13-.1-.2-.16-.07-.05-.13-.1-.2-.15-.26-.2-.51-.4-.74-.61-.06-.05-.12-.1-.17-.16-.06-.05-.12-.1-.18-.15-.12-.1-.24-.2-.35-.3-.11-.1-.23-.2-.34-.3-.11-.1-.22-.21-.34-.3-.23-.19-.47-.38-.69-.57-.12-.09-.23-.19-.35-.28l-.37-.25c-.25-.17-.5-.33-.77-.49-.13-.08-.27-.15-.41-.21-.14-.07-.28-.13-.43-.19-.12.08-.27.12-.46.11-.19,0-.41-.05-.66-.11-.25-.06-.53-.15-.84-.23-.15-.05-.31-.09-.47-.14-.16-.05-.33-.09-.5-.13-.68-.18-1.42-.33-2.13-.37-.35-.01-.7-.02-1.02.03-.32.04-.62.11-.88.22.63.07,1.26.18,1.88.3-1-.12-1.8-.09-2.48-.04-.34.04-.65.07-.94.12-.29.05-.57.1-.84.16-1.07.25-2.11.48-3.89.89.71-.32,1.26-.51,1.75-.67.49-.15.91-.28,1.39-.4.47-.13.99-.26,1.69-.43.7-.15,1.57-.35,2.79-.49-1.22.05-2.33.12-3.38.22-1.06.1-2.06.24-3.03.43-.98.19-1.93.45-2.85.81-.93.36-1.83.83-2.7,1.45.18.03.52-.04.71-.03.2,0,.24.09-.16.42-.47-.04-1.33.45-2.01.88-.68.42-1.19.78-1.1.37-.24.22-.41.43-.53.63-.13.19-.21.36-.29.53-.14.33-.25.59-.52.88-.62.36-1.22.76-1.82,1.18-.29.22-.59.43-.88.65l-.43.34-.41.35.17-.03c-.12.2-.23.4-.35.59-.12.19-.24.38-.35.57-.23.39-.46.76-.69,1.12-.22.37-.44.74-.68,1.1l-.17.27-.16.27c-.11.18-.22.36-.33.54-.88,1.42-1.76,2.81-2.56,4.25-.8,1.44-1.53,2.91-2.13,4.46-.6,1.55-1.04,3.17-1.26,4.88l.32-.07-.39.79c-.09.18-.18.37-.26.55.38-.71.17.9.39,1.04-.47,1.39-.85,2.79-1.26,4.2.25.13.88-.06.9-1.12.05.83-.15,1.64-.33,2.43-.19.79-.42,1.56-.5,2.27l.3-.47c-.05.24-.12.47-.17.71l-.14.71h.38c-.07.59-.11,1.22-.13,1.84,0,.16-.01.31-.02.47,0,.15,0,.31,0,.46,0,.3,0,.6,0,.89,0,1.14-.06,2.09-.33,2.54l.59-.29ZM107.56,63.96l.25-.76c-.05.76-.16.84-.25.76l-.22.63c-.16-1.67.03-.81.22-.63ZM86.02,7.26c.04-.06.13-.1.28-.11-.04.2.08.43.28.67.09.11.2.22.32.34-.29-.25-.58-.48-.88-.71-.03-.08-.03-.14,0-.19ZM55.32,68.05c-.05-.22-.08-.45-.12-.68,0-.12.04-.19.08-.23.13.37.27.74.4,1.11-.04.12-.15.09-.36-.2ZM67.71,88.85c-.09-.12-.18-.25-.27-.37-.08-.11-.17-.23-.25-.34.21.24.43.48.65.72,0,.1.03.21.14.36-.08-.12-.17-.24-.26-.36ZM71.77,93.2c-.06-.09-.15-.18-.27-.28-.11-.1-.25-.2-.39-.32-.29-.23-.63-.49-.97-.75-.08-.07-.17-.13-.25-.2-.08-.07-.16-.14-.23-.21-.15-.14-.29-.29-.42-.43-.25-.28-.43-.56-.47-.81.25.24.51.47.76.7l.38.35.19.17.2.17c-.06-.07-.12-.13-.18-.2-.06-.07-.12-.14-.18-.2-.12-.13-.23-.27-.35-.4-.23-.26-.46-.5-.67-.75-.11-.13-.22-.27-.32-.39,1.01,1.04,2.06,2.03,3.17,2.95.07.18.16.41.02.6ZM78.22,98.03c-.76-.15-1.28-.45-1.7-.8-.41-.36-.74-.74-1.17-1.04l.59.12c-.16-.13-.3-.25-.43-.37-.13-.11-.23-.23-.33-.34-.19-.21-.34-.39-.46-.55-.11-.16-.19-.29-.26-.41.28.19.57.38.86.57-.03,0-.06,0-.09.01.09.06.18.12.27.18.09.06.19.13.29.19.2.12.4.25.61.39.21.13.41.27.62.42.2.14.42.27.62.41.2.14.4.27.58.41.18.14.36.27.52.39.33.25.59.48.76.7-.6-.06-1.18-.43-1.62-.84-.45-.39-.79-.75-.98-.73.43.43,1.47.95,1.32,1.3ZM83.72,99.53l-.38.17c-.22-.2-.44-.41-.64-.61.23.05.46.11.69.14l.35.06.35.05-.37.19ZM86.13,99.22c-1.32,0-2.66-.21-3.93-.63-.63-.21-1.25-.46-1.83-.75-.06-.03-.12-.06-.18-.1.04.02.07.03.11.05.03.01.05.02.08.03,1.73.69,3.54,1.03,5.32,1.04.23.06.47.13.71.18.47.1,1.01.12,1.61-.09-.16-.06-.31-.13-.47-.2.48-.06.96-.14,1.43-.24.04.01.11.03.22.03.16,0,.4.03.75.01-1.19.44-2.51.65-3.83.66ZM97.28,94.04c-.19.19-.37.39-.58.58.11-.16.22-.33.32-.49.11-.16.2-.33.3-.5l-.05.41ZM100.33,89.06c-.24.31-.5.61-.77.91.6-1.08,1.14-2.2,1.61-3.35.12-.15.24-.29.35-.44.12.88-.42,1.9-1.19,2.88ZM103.51,84.27c-.18.25-.53.82-.85,1.22-.31.41-.59.64-.59.28.32-.72.67-1.8.92-2.85.25-1.06.4-2.08.4-2.69-.06-.09-.1-.23-.05-.49.04.09.05.27.05.49.08.09.21.09.34,0,.09-.21.2-.39.31-.46-.05.2-.17.37-.31.46-.12.28-.23.63-.29.97-.07.34-.11.66-.1.88.14-.09.26-.35.38-.64.12-.29.22-.59.34-.74.1.73-.46,1.74-.84,2.49-.19.38-.33.69-.32.89.01.2.18.29.62.2ZM104.45,74.93c-.03.53-.15,1.23-.2,1.51-.1.14-.19.3-.28.45.17-.82.32-1.63.46-2.45.03.12.04.29.02.49ZM105.63,59.55s0-.04,0-.06c.11-.42.27-.73.47-.6-.16,1.09-.33.52-.46.67ZM105.83,53.75s.06,0,.09-.01c-.03.02-.06.03-.09.01ZM107.2,61.8c-.01.65-.09,1.35-.2,1.64,0-.46-.02-1.3-.02-1.98,0-.34,0-.64-.01-.83,0-.19,0-.28,0-.2.09.05.15.23.18.48.04.25.05.56.04.89ZM106.03,45.22c.21.76.43,1.52.63,2.28.09.19.16.43.19.74l-.19-.74c-.19-.43-.49-.66-.66-.95-.17-.29-.23-.65.03-1.33ZM105.4,49.25c.04-.3.09-.54.15-.77.06-.23.14-.45.22-.7.08-.25.18-.54.27-.92.14.44.19.82.19,1.12,0,.31-.06.54-.14.72-.17.35-.45.46-.63.37-.14,1.3.24,1,.4,1.67l-.54-.37c.02-.46.06-.82.1-1.12ZM94.02,16.06c0,.5.12.99.29,1.48-.27-.47-.55-.94-.84-1.4,0,0,.02,0,.03,0,.14-.03.26-.11.52-.08ZM90.91,11.95c-.14-.11-.25-.22-.35-.31-.1-.09-.17-.18-.23-.26-.12-.16-.18-.3-.21-.44-.04-.14-.05-.27-.08-.41-.03-.14-.08-.29-.19-.47-.13-.14-.27-.3-.43-.52.21.2.34.36.43.52.12.13.22.24.3.33.08.09.13.16.17.22.06.12.03.19-.13.28.11.36.63.67.72,1.04ZM89.31,6.36c.26.26.53.5.77.77.17.13.34.29.47.5l-.47-.5c-.22-.17-.46-.28-.61-.38-.16-.11-.23-.22-.16-.39ZM84.49,3.72c.21.16.37.27.52.37.14.1.28.19.45.27-.06-.16-.26-.47-.38-.67-.12-.2-.13-.33.23-.18.17.26.63.64,1.01.99.37.37.67.73.57.89-.25-.3-.53-.53-.82-.67-.29-.15-.58-.24-.82-.32-.12-.04-.23-.08-.33-.12-.1-.04-.19-.07-.26-.12-.14-.09-.21-.22-.18-.43ZM72,3.01c.32-.01.6-.04.77-.12.16-.07.22-.2.08-.41l.42.28-.34.09c.49,0,.98.02,1.47.05-.93.3-1.72.33-2.44.3-.36-.01-.7-.05-1.01-.06-.16,0-.3-.02-.45-.02-.14,0-.27.01-.4.03.42-.12,1.25-.1,1.9-.14ZM69.05,5.12c-.14.05-.28.11-.42.16-.03-.02-.06-.04-.1-.06.17-.04.34-.08.52-.11ZM57.92,9.62c.14-.2.31-.36.5-.48.18-.12.37-.21.56-.29.19-.08.37-.14.52-.22.08-.05.16-.11.26-.15-.08.05-.17.11-.26.15-.51.32-.72.7-.94,1.01-.21.32-.43.59-.99.74.08-.31.2-.56.35-.76ZM57.04,11.61c.36-.37.62-.55.43-.24-.48.79-.22.7.08.55.3-.14.64-.34.36.18.18-.25.35-.51.54-.76-.3.73-.55.87-.8.95-.12.04-.25.06-.38.14-.12.08-.25.2-.38.44.12-.21.23-.43.35-.64.01-.17-.04-.21-.13-.17-.04.02-.1.05-.15.1-.06.05-.12.11-.18.18-.25.27-.55.62-.72.6.18-.39.6-.97.97-1.33ZM52.44,27.57c.05-.09.11-.19.16-.31-.14.62-.27,1.23-.38,1.85-.07-.04-.09-.14-.09-.28,0-.24.04-.61-.03-1,.04.12.19,0,.34-.26ZM49.06,47.37c.39,1.01.29,1.14.24,1.85-.17-.21-.29-1.14-.24-1.85ZM48.64,50.28c.12-.3.31-.6.3-1.25.13.42.18.73.18.96,0,.23-.04.4-.11.54-.12.29-.32.5-.29,1.03-.26-.67-.2-.98-.09-1.28Z"/>
      <path class="cls-1" d="M48.4,28.48c-.03.06-.07.15-.12.25.04-.08.08-.17.12-.25Z"/>
      <path class="cls-1" d="M107.07,71.08l-.03-.06c-.03.16-.06.31-.09.46l.12-.4Z"/>
      <path class="cls-1" d="M49.02,139.18c.08-.01.17-.03.27-.05-.09.01-.18.03-.27.05Z"/>
      <path class="cls-1" d="M48.71,139.19c-.15,0-.26-.03-.37-.04-.11-.01-.22-.01-.37.01-.08.01-.16.03-.26.06-.1.02-.22.05-.35.1.16,0,.32,0,.48-.02l.48-.05.48-.05c.07,0,.14-.02.21-.03-.12.02-.22.02-.31.01Z"/>
      <path class="cls-1" d="M48.99,138.38h-.25c-.08,0-.17,0-.25,0l-.03.28.26-.06c.09-.02.17-.05.26-.08l.52-.16-.51.02Z"/>
      <path class="cls-1" d="M12,55.73l.04-.29c-.42.33-.28.34-.04.29Z"/>
      <path class="cls-1" d="M31.91,54.3l-.42.05c.06.05.13.1.19.15.11-.02.19-.08.23-.2Z"/>
      <path class="cls-1" d="M6.72,59.71c-.08.03-.17.08-.27.15-.1.07-.21.17-.33.28.16-.04.31-.1.45-.16.15-.06.29-.13.43-.21-.03-.09-.13-.12-.28-.06Z"/>
      <path class="cls-1" d="M36.44,57.43c.25.27.48.48.72.73-.11-.22-.35-.49-.72-.73Z"/>
      <path class="cls-1" d="M38.52,137.17c.75.26,1.51.48,2.29.68.06.02.12.05.18.06-.03-.02-.07-.03-.1-.04.74.18,1.49.34,2.25.46.03,0,.05,0,.08.01.16.03.33.05.49.07.09.04.19.07.3.1.1.03.2.05.32.07.11.01.23.02.35.03.25.02.51.03.78.03.27-.02.54-.04.82-.07.07,0,.14-.01.2-.02.07,0,.13-.02.2-.04.13-.03.26-.05.38-.08.26-.05.5-.11.72-.17.26-.05.52-.1.78-.17.06,0,.12,0,.16-.01.02-.02.03-.03.04-.04.94-.25,1.84-.6,2.7-1.04,0,.09,0,.18,0,.26.06-.06.13-.13.22-.21.09-.08.18-.16.29-.25.11-.08.22-.17.35-.25.06-.04.12-.08.19-.12.06-.04.12-.09.18-.13.24-.17.48-.31.7-.41.21-.11.38-.18.5-.16.05.13-.03.29-.17.47-.16.16-.39.34-.65.51-.25.18-.56.32-.84.46-.14.07-.27.14-.39.2-.12.06-.24.11-.33.16.87-.38,1.52-.7,2.07-.96.14-.07.28-.12.4-.18.12-.06.24-.12.36-.18.23-.12.45-.22.66-.33.2-.12.4-.24.6-.38.1-.07.2-.14.3-.22.1-.08.19-.17.29-.26.19-.19.4-.41.61-.67.19-.27.4-.59.61-.95l-.49.34c.89-1.88,2.36-3.49,2.92-5.2-.04.51.13.69.3.49.22-.99.42-1.95.6-2.92.18-.97.35-1.94.48-2.93.26-1.98.4-4.03.27-6.21.2-.43.4-.87.59-1.31l-.46-.08c-.12-1.06.04-1.18.22-1.2.18-.03.38.04.33-.65.02.52-.06.43-.16.54.41-2.5-.47-1.36-.42-2.75-.43.69-.04,2.67-.71,2.08.05-.31.09-.64.12-.98.03-.34.04-.69.05-1.05,0-.35.02-.71.01-1.06,0-.35,0-.69,0-1.02.01-.66.02-1.25.11-1.71.08-.46.24-.79.5-.91-.5-2.26-.87-4.79-1.28-7.25-.41-2.45-.85-4.82-1.38-6.69-.34-.45-.05.36-.25.21.02-.21,0-.44-.04-.68-.05-.24-.12-.5-.2-.76s-.19-.53-.3-.8c-.11-.26-.24-.52-.36-.77-.47-1-.92-1.79-.66-1.91-.2-.32-.43-.51-.63-.64-.2-.13-.38-.19-.49-.26-.06-.5-.16-1.04-.31-1.6-.15-.55-.34-1.13-.56-1.72.08.3.15.6.22.9l-.11-.06-.15-.64-.17-.63.05.03c-.14-.36-.29-.73-.45-1.1-.16-.37-.33-.74-.5-1.11-.33-.75-.7-1.49-1.05-2.23-.71-1.48-1.39-2.93-1.86-4.3.45,1.36-.46.38-.6.57-.02-.38-.12-.81-.27-1.27-.2-.55-.47-1.15-.8-1.76-.68-1.22-1.57-2.51-2.44-3.61-.15.12-.39.04-.32.39-.22-.51-.43-1.02-.67-1.52l-.05.31c-.48-.55-.89-1.16-1.31-1.77-.21-.31-.4-.61-.6-.92-.2-.31-.39-.61-.58-.9-.19-.29-.38-.58-.57-.86-.19-.27-.39-.53-.58-.77-.19-.24-.38-.46-.58-.66-.2-.2-.4-.37-.61-.51.74.95.59,1.09.45,1.38-.33-.39-.69-.77-1.03-1.16-.35-.38-.71-.76-1.07-1.15-.37-.39-.74-.79-1.13-1.21-.39-.42-.81-.85-1.23-1.31.07.13.09.24.05.29-.27-.19-.53-.44-.78-.72-.12-.14-.24-.28-.36-.42-.12-.14-.24-.27-.36-.4l-.35.31c-.11-.12-.23-.23-.36-.35-.13-.11-.27-.22-.42-.33-.29-.22-.6-.44-.93-.65-.16-.11-.33-.21-.49-.33l-.25-.17-.25-.17c-.17-.11-.33-.23-.49-.35-.16-.12-.32-.25-.48-.38-.2.04-.5-.07-.87-.27-.18-.1-.4-.21-.62-.33-.22-.13-.46-.26-.71-.4-.26-.13-.53-.26-.79-.39-.14-.06-.27-.13-.41-.19-.14-.06-.28-.11-.42-.16-.28-.1-.56-.2-.83-.27-.27-.06-.54-.1-.78-.12-.35-.12.02.08.22.26.2.18.23.34-.75.14-.07-.5-.74-.59-1.4-.67-.66-.06-1.31-.08-1.4-.61-.63.14-1.24.31-1.84.52-.16-.16-.32-.31-.48-.47-.36.31-.68.46-1.01.54-.16.04-.33.06-.5.06-.17.01-.34.01-.52,0-.18,0-.37,0-.57,0-.2,0-.41.01-.63.05-.22.04-.45.08-.69.16-.24.08-.49.19-.75.34.16.05.4,0,.32.11-.37.09-.96.3-1.31.4-.35.1-.48.06.08-.35-.29.13-.74.34-1.23.59-.49.25-1,.54-1.41.81-.41.27-.72.51-.8.64-.09.13.04.15.5,0-.14-.09.18-.32.63-.56.23-.11.49-.23.73-.34.25-.1.48-.19.66-.25.03.11-.05.24-.19.38-.14.14-.34.29-.55.46-.21.17-.42.34-.58.52-.16.18-.28.35-.3.52-.07,0-.31.06-.49.1-.02.12-.03.25-.04.38-1.04.45-1.92,1.16-2.7,1.85-.79.69-1.48,1.37-2.25,1.8.02.08,0,.22-.1.4-.09.19-.26.43-.5.73l-.48-.31c-.48.66-.91,1.35-1.32,2.06.43-.2.86-.37,1.29-.53-.31.57-.65,1.07-.97,1.54-.16.23-.32.45-.49.67-.08.11-.17.21-.25.32-.08.11-.16.21-.24.32-.32.42-.65.83-.93,1.27-.14.22-.28.44-.41.67-.13.23-.24.47-.34.71.18.21.16.54.05.97-.05.21-.13.45-.22.7-.09.25-.2.52-.29.8-.1.28-.2.57-.29.86-.1.29-.16.59-.22.88-.05.29-.1.58-.1.85,0,.27.03.53.1.77l.26-.77.29-.76c-.23.83-.32,1.5-.39,2.07-.05.58-.07,1.06-.09,1.54,0,.48-.02.94-.06,1.48-.03.54-.1,1.16-.21,1.93-.03-.33-.05-.62-.06-.88,0-.26-.01-.5-.02-.72,0-.22-.01-.42-.01-.62,0-.2,0-.4,0-.61,0-.42-.02-.88-.03-1.48-.02-.61-.04-1.36-.04-2.39-.19,2.02-.5,3.7-.72,5.36-.22,1.65-.33,3.28,0,5.05.21-.25.34-1.14.59-.28-.11.18-.16.47-.18.81,0,.17,0,.35,0,.53,0,.18.02.36.03.53.02.34.03.64,0,.82-.02.19-.09.26-.25.14.3,1.07.84,1.21.98,1.86l-.09.92-.05.92-.09,1.86.1-.13c.13.37.28.74.4,1.1.12.36.24.73.34,1.09.1.36.19.72.28,1.08.09.36.18.71.26,1.07.08.36.15.72.21,1.07.03.18.06.36.09.54.03.18.07.36.1.53.14.71.25,1.43.37,2.15.05.36.13.71.2,1.07.07.36.14.72.21,1.07.07.36.15.72.23,1.08.09.36.19.71.29,1.07.1.36.21.71.32,1.07.12.36.22.72.37,1.07.28.7.6,1.4.96,2.1l.23-.23c.04.45.12.9.19,1.35-.06-.71.63.58.89.56l.27.97.07.24.08.24.15.48.61,1.93c.27-.05.7-.54.16-1.35.24.3.43.63.59.97.16.34.31.69.43,1.05.26.71.46,1.42.78,2,0-.17,0-.35,0-.52l.12.32c.04.1.08.21.13.31l.25.62.31-.21c.25.49.55.99.85,1.47.15.25.32.48.48.71.16.23.31.46.46.67.3.44.56.84.74,1.2.19.36.31.66.31.92l.34-.56,1,2.15-.47-1.31c.21.25.42.53.63.81.11.14.21.29.32.44.11.15.22.29.34.44.45.6.89,1.21,1.28,1.78.83,1.11,1.5,2.03,1.68,2.24v-.33c.2.12.31.27.42.43.11.16.2.34.33.53v-.48c.34.36.65.69.94.98.3.29.59.54.86.78.14.12.27.23.41.34.14.11.27.21.4.31.27.2.52.4.79.6,1.07.78,2.13,1.62,3.79,3.1.25.17.35.22.35.2,0-.02-.08-.1-.2-.22-.23-.23-.57-.56-.52-.64.17.05.36.15.56.29.1.07.2.15.3.23.1.08.2.16.3.25.38.34.71.69.8.85.01-.64-1.57-1.58-.19-1.11.65.78-.26-.78,1.08.3.06.31.12.62.19.94.44.22.55.14.71.11.16-.02.36,0,1,.42.67.58.12.47-.32.4-.43-.07-.75-.09.46.7.32.17.7.25,1.11.32.21.03.42.06.65.08.23.02.46.04.71.06.24.02.49.05.75.1.13.02.26.05.39.08.13.02.27.05.4.09.54.13,1.1.36,1.71.67,1.16.24.95-.12.84-.37-.06-.13-.09-.23.07-.22.08,0,.21.04.41.1.2.06.48.15.85.29l-.9-.51h-.02ZM45.79,70.64s-.04.06-.08.06c.03-.02.05-.04.08-.06ZM53.43,135.83c-.12.06-.23.13-.34.19.25-.17.49-.35.72-.54.09,0,.19-.01.33-.09-.24.13-.47.29-.71.44ZM57.38,131.91c-.07.12-.16.25-.24.41-.18.3-.35.67-.58,1-.11.17-.23.34-.34.49-.06.08-.12.15-.19.22-.06.07-.13.13-.19.19-.13.12-.26.23-.38.31-.06.04-.12.07-.19.1-.06.02-.13.04-.19.04.12-.11.22-.24.32-.36l.31-.37c.22-.24.39-.51.58-.76-.24.24-.45.49-.69.71-.12.11-.23.22-.34.33-.11.11-.22.22-.34.31-.12.09-.23.19-.34.27.95-.89,1.77-1.92,2.44-3.08.16-.09.36-.21.58-.1-.07.07-.14.17-.21.29ZM60.63,119.33c.14.21.28.42.42.64-.18.21-.35.42-.53.62.04-.42.08-.84.11-1.26ZM60.47,125.71c-.06.28-.16.52-.26.75-.11.23-.24.43-.35.64-.06.1-.11.21-.17.32-.06.11-.11.21-.15.33-.01-.19-.02-.37-.04-.56-.16.35-.32.62-.46.84-.14.22-.28.39-.4.53-.12.13-.23.24-.33.32.11-.3.21-.6.31-.9.01.02.03.05.04.08.24-.75.54-1.67.85-2.51.14-.42.31-.82.46-1.17.08-.17.16-.33.24-.47.08-.14.16-.26.24-.36.03.14.04.28.03.42-.01.14-.04.28-.08.42-.04.14-.09.28-.14.41-.06.13-.12.26-.18.38-.25.49-.52.87-.44,1.04.31-.48.51-1.52.88-1.47.04.36.02.67-.04.95ZM60.35,113.98c.24,2.29.15,4.72-.24,7.12-.11.66-.24,1.32-.39,1.97.24-1.72.35-3.45.39-5.19,0,0,0-.02,0-.03.06-.2.13-.41.19-.62.06-.21.11-.44.13-.68.02-.24,0-.5-.06-.78-.08.14-.17.26-.25.4,0,0,0-.01,0-.02,0-.44-.01-.88-.02-1.32.02-.03.04-.09.08-.19.05-.14.11-.35.18-.66ZM59.81,106.14l.07.73-.33-1.01.27.28ZM58.71,100.1c.02.27.02.54.02.83,0,.28-.01.57-.02.87,0,.07,0,.14-.01.22-.22-1.12-.46-2.23-.72-3.33.01-.17.03-.34.04-.51.3.29.47.7.58,1.18.05.24.09.49.11.76ZM56.46,92.65c.11.03.22-.04.29-.18-.03-.21-.03-.4.04-.51.06.18.03.37-.04.51.03.28.14.6.24.9.11.3.24.57.36.73.15-.27-.13-1.07-.09-1.43.23.26.35.65.42,1.08.07.43.11.88.14,1.26.07.77.19,1.26.82.67-.02.56.02,2.43-.39,1.88-.07-.35-.16-.78-.3-1.23-.13-.45-.29-.94-.45-1.4-.35-.93-.73-1.81-1.04-2.27-.1-.03-.2-.13-.28-.36.08.05.18.19.28.36ZM54.73,88c.24.42.47,1.03.57,1.28,0,.16-.01.32-.01.49-.26-.72-.54-1.43-.82-2.14.08.08.17.21.26.37ZM51.66,77.65c.06,0,.26.15.39.17-.05-.24-.1-.48-.15-.73.33.62.27.74.15.73l.12.61c-.47-.62-.56-.78-.5-.78ZM49.86,75.36c.2,0,.55.44.85.96.3.52.56,1.11.62,1.39-.23-.36-.64-1.01-.97-1.54-.34-.52-.6-.93-.5-.81ZM48.36,74.61c.39.94-.04.58-.08.76-.01-.02-.02-.03-.03-.05-.11-.39-.12-.71.11-.71ZM44.3,68.32h-.63c-.2-.39-.35-.69-.45-.95-.11-.26-.18-.48-.23-.69-.11-.43-.16-.85-.36-1.54.33.28.55.54.69.79.14.25.2.47.22.65.02.37-.17.6-.36.63.5,1.09.68.66,1.13,1.11ZM43.45,65.31c.17.1.35.25.51.49-.17-.16-.34-.33-.51-.49-.37-.23-.72-.26-1.01-.4-.28-.14-.49-.39-.61-1.07.55.48,1.08.98,1.61,1.47ZM15.35,56.26c.29.02.58.01.87-.03.18-.02.36-.06.54-.1-.46.21-.9.43-1.34.68,0,0,0-.02,0-.03-.02-.14-.1-.26-.06-.52ZM9.91,60.3c.47-.49.56-.67.76-.36.33-.12.58-.62.92-.73-.09.14-.18.25-.26.34-.08.1-.15.17-.22.23-.14.12-.27.18-.39.22-.25.08-.5.07-.81.3-.12.13-.26.27-.44.45.16-.22.31-.34.44-.45ZM8.49,63.21c-.2.29-.39.59-.57.89-.15.07-.27.01-.33-.25.29.03.6-.26.9-.64ZM7.04,60.26c.11-.18.23-.35.43-.49l-.43.49c-.26.46-.29.91-.64.79.21-.27.43-.53.64-.79ZM4.19,64.94c.21-.17.53-.59.83-.96.15-.18.29-.35.43-.46.14-.11.25-.16.34-.12-.27.25-.42.53-.53.8-.11.27-.17.53-.22.76-.09.46-.15.76-.57.72.26-.39.38-.58.5-.9-.16.05-.41.26-.59.37-.19.11-.31.13-.2-.21ZM2.27,91.18c-.09-.11-.17-.22-.22-.33-.06-.11-.09-.22-.12-.32-.05-.21-.05-.41-.02-.59.05-.38.21-.71.29-1.01.01-.09.02-.16.04-.26,0,.08-.02.17-.04.26-.07.52.08.86.18,1.18.1.32.14.62-.11,1.08ZM2.43,78.38c.01-.19.09-.46.18-.75.09-.29.18-.6.26-.88.15-.56.17-.98-.3-.85l.37-.3v.32s.1-.32.1-.32l.1-.31.19-.63c.06.44.03.83-.02,1.19-.05.36-.15.69-.27.99-.22.61-.51,1.11-.6,1.55ZM3.6,93.08l-.19-.62c-.46-.43-.08,1.02-.35,1.2-.29-.71-.32-2.48-.12-1.86.24.78.35.56.45.27.1-.28.19-.63.38-.14l-.19-.81c.66,1.26-.27,1.03.02,1.95ZM3.92,79.9c0,.14,0,.28,0,.42l-.09.06c.03-.16.06-.32.09-.48ZM9.56,107.09c-.07-.09-.15-.22-.26-.36-.09-.12-.19-.25-.31-.37.13.09.19-.23.12-.65.22.52.44,1.03.67,1.55-.07,0-.14-.06-.22-.16ZM16.74,122.84c.84.55.82.71,1.15,1.28-.25-.06-.82-.71-1.15-1.28ZM17.9,125.31c-.06-.29-.06-.63-.4-1.13.33.25.52.46.64.63.13.17.17.33.19.47.05.29,0,.56.29.95-.56-.37-.67-.64-.73-.93ZM32.68,134.79l-.48-.42c-.07-.1-.08-.17-.07-.22.31.19.62.37.94.54.04.12-.05.17-.38.09Z"/>
      <path class="cls-1" d="M6.29,108.9c0,.07.02.15.04.26-.01-.09-.03-.17-.04-.26Z"/>
      <path class="cls-1" d="M55.08,83.66l-.06-.03c.06.14.11.27.16.4l-.1-.37Z"/>
    </g>
  </g>
</svg>